<?xml version="1.0" encoding="utf-8"?>
<!-- Generator: Adobe Illustrator 19.2.1, SVG Export Plug-In . SVG Version: 6.00 Build 0)  -->
<svg version="1.1" id="Layer_1" xmlns="http://www.w3.org/2000/svg" xmlns:xlink="http://www.w3.org/1999/xlink" x="0px" y="0px"
	 width="602.9px" height="59.4px" viewBox="0 0 602.9 59.4" style="enable-background:new 0 0 602.9 59.4;" xml:space="preserve">
<style type="text/css">
	.st0{fill:#F9F9F9;}
	.st1{fill:#336699;}
	.st2{fill:#003366;}
	.st3{fill:#13457C;}
	.st4{fill-rule:evenodd;clip-rule:evenodd;fill:#FBB231;}
	.st5{fill-rule:evenodd;clip-rule:evenodd;fill:#EC1C2E;}
	.st6{fill-rule:evenodd;clip-rule:evenodd;fill:#FFFFFF;}
	.st7{fill:none;stroke:#FFFFFF;stroke-width:0.216;stroke-miterlimit:2.6131;}
	.st8{fill:#606060;}
	.st9{fill:#FFFFFF;}
	.st10{fill:#F9A533;}
	.st11{fill:#EC1C2E;}
	.st12{fill:#0084C4;}
	.st13{fill:none;stroke:#FFFFFF;stroke-width:0.215;}
	.st14{fill:#0067B3;}
	.st15{fill-rule:evenodd;clip-rule:evenodd;fill:#F9A51A;}
	.st16{fill-rule:evenodd;clip-rule:evenodd;fill:#EC1C24;}
</style>
<g>
	<g>
		<path class="st0" d="M477.1,56c0,1.7-1.4,3.2-3.1,3.2h-88.2c-1.7,0-3.1-1.4-3.1-3.2V3.2c0-1.7,1.4-3.1,3.1-3.1h88.2
			c1.7,0,3.1,1.4,3.1,3.1V56z"/>
		<g>
			<path class="st1" d="M459.6,24.5c-0.9-0.5-2.2-0.7-4.1-0.7c-0.9,0-1.9,0.1-2.8,0.2c-0.7,0.1-0.8,0.1-1.2,0.2
				c-0.9,0.2-1,1.1-1,1.1l-0.3,1.2c-0.2,0.7,0.3,0.7,0.4,0.7c0.4-0.1,0.6-0.2,1.4-0.4c0.7-0.2,1.5-0.3,2.2-0.3
				c0.9,0,1.6,0.1,2.1,0.3c0.5,0.2,0.7,0.6,0.7,1c0,0.1,0,0.2,0,0.3c0,0.1-0.1,0.2-0.3,0.2c-1.3,0.1-2.3,0.2-3.4,0.4
				c-1.1,0.2-2.1,0.4-2.9,0.8c-0.9,0.4-1.5,0.9-2,1.6c-0.4,0.7-0.7,1.5-0.7,2.4c0,0.9,0.3,1.6,0.9,2.2c0.6,0.6,1.4,0.8,2.4,0.8
				c0.6,0,1.1,0,1.4-0.1c0.3-0.1,0.7-0.2,1.1-0.4c0.3-0.1,0.6-0.3,1-0.5c0.3-0.2,0.6-0.4,0.9-0.6l0,0l-0.1,0.4c0,0,0,0,0,0l0,0
				c-0.1,0.4,0.2,0.8,0.6,0.9l0,0h0l0,0c0.3,0,1.3,0,1.8,0h0.3c0,0,0,0,0,0c0.5-0.1,0.9-0.4,1-0.9l1.7-7.3c0-0.2,0.1-0.4,0.1-0.6
				c0-0.2,0-0.4,0-0.6C460.9,25.8,460.5,25,459.6,24.5z M455.5,33.2c-0.3,0.2-0.6,0.3-0.9,0.5c-0.4,0.2-0.8,0.3-1.2,0.3
				c-0.6,0-1-0.1-1.3-0.3c-0.3-0.2-0.5-0.5-0.4-0.9c0-0.5,0.1-0.8,0.3-1.1c0.2-0.3,0.6-0.5,1-0.7c0.4-0.1,0.9-0.3,1.5-0.3
				c0.5-0.1,1.6-0.2,1.7-0.2c0.1,0,0.2-0.1,0.2,0.3c0,0.2-0.3,1.4-0.5,1.9C455.8,32.9,455.6,33.1,455.5,33.2z"/>
			<path class="st2" d="M430.6,23.9c-0.5,0-1.1,0.4-1.4,0.9c0,0-3.3,5.7-3.6,6.2c-0.2,0.3-0.4,0.1-0.4,0c0-0.1-1-6.2-1-6.2
				c-0.1-0.5-0.6-0.9-1.3-0.9l-2.1,0c-0.5,0-0.8,0.4-0.7,0.9c0,0,1.6,8.9,1.9,11c0.2,1.2,0,1.4,0,1.4l-2,3.6
				c-0.3,0.5-0.1,0.9,0.4,0.9l2.4,0c0.5,0,1.2-0.4,1.4-0.9l9.2-15.6c0,0,0.9-1.3,0.1-1.3C432.8,24,430.6,23.9,430.6,23.9"/>
			<path class="st2" d="M401.5,27.1c-0.7,0.5-1.7,0.8-2.9,0.8h-0.6c-0.5,0-0.8-0.4-0.7-0.9l0.7-3c0.1-0.5,0.6-0.9,1.1-0.9l0.8,0
				c0.9,0,1.6,0.2,2,0.5c0.4,0.3,0.7,0.8,0.7,1.4C402.6,25.9,402.2,26.6,401.5,27.1 M406.5,22.5c-0.3-0.6-0.7-1-1.3-1.4
				c-0.6-0.4-1.2-0.6-2-0.7c-0.8-0.1-1.7-0.2-2.7-0.2l-4.8,0c-0.5,0-1,0.4-1.1,0.9l-3.3,14.1c-0.1,0.5,0.2,0.9,0.7,0.9h2.3
				c0.5,0,1-0.4,1.1-0.9l0.8-3.4c0.1-0.5,0.6-0.9,1.1-0.9h0.7c2.8,0,5-0.6,6.6-1.7c1.6-1.2,2.4-2.7,2.4-4.6
				C407,23.7,406.8,23,406.5,22.5"/>
			<path class="st1" d="M443.5,27.2c-0.7,0.5-1.7,0.8-2.9,0.8H440c-0.5,0-0.8-0.4-0.7-0.9l0.7-3c0.1-0.5,0.6-0.9,1.1-0.9l0.8,0
				c0.9,0,1.6,0.2,2,0.4c0.4,0.3,0.7,0.8,0.7,1.4C444.5,25.9,444.2,26.7,443.5,27.2 M448.5,22.5c-0.3-0.6-0.7-1-1.3-1.4
				c-0.6-0.4-1.2-0.6-2-0.7c-0.8-0.1-1.7-0.2-2.7-0.2l-4.8,0c-0.5,0-1,0.4-1.1,0.9l-3.2,14.1c-0.1,0.5,0.2,0.9,0.7,0.9l2.3,0
				c0.5,0,1-0.4,1.1-0.9l0.8-3.4c0.1-0.5,0.6-0.9,1.1-0.9h0.7c2.8,0,5-0.6,6.6-1.7c1.6-1.2,2.4-2.7,2.4-4.6
				C448.9,23.8,448.8,23.1,448.5,22.5"/>
			<path class="st2" d="M417.7,24.5c-0.9-0.5-2.2-0.7-4.1-0.7c-0.9,0-1.9,0.1-2.8,0.2c-0.7,0.1-0.8,0.1-1.2,0.2
				c-0.9,0.2-1,1.1-1,1.1l-0.3,1.2c-0.2,0.7,0.3,0.7,0.5,0.7c0.4-0.1,0.6-0.2,1.4-0.4c0.7-0.2,1.5-0.3,2.2-0.3
				c0.9,0,1.6,0.1,2.1,0.3c0.5,0.2,0.7,0.6,0.7,1c0,0.1,0,0.2,0,0.3c0,0.1-0.1,0.2-0.3,0.2c-1.3,0.1-2.3,0.2-3.4,0.4
				c-1.1,0.2-2.1,0.4-2.9,0.8c-0.9,0.4-1.5,0.9-2,1.6c-0.4,0.7-0.7,1.5-0.7,2.4c0,0.9,0.3,1.6,0.9,2.2c0.6,0.6,1.4,0.8,2.4,0.8
				c0.6,0,1.1,0,1.4-0.1c0.3-0.1,0.7-0.2,1.1-0.4c0.3-0.1,0.6-0.3,1-0.5c0.3-0.2,0.6-0.4,0.9-0.6l0,0l-0.1,0.4c0,0,0,0,0,0l0,0
				c-0.1,0.4,0.2,0.8,0.6,0.9l0,0h0l0,0c0.3,0,1.3,0,1.8,0h0.3c0,0,0,0,0,0c0.5-0.1,0.9-0.4,1-0.9l1.7-7.3c0-0.2,0.1-0.4,0.1-0.6
				c0-0.2,0-0.4,0-0.6C419,25.8,418.5,25,417.7,24.5z M413.6,33.2c-0.3,0.2-0.6,0.3-0.9,0.5c-0.4,0.2-0.8,0.3-1.2,0.3
				c-0.6,0-1-0.1-1.3-0.3c-0.3-0.2-0.5-0.5-0.5-0.9c0-0.5,0.1-0.8,0.3-1.1c0.2-0.3,0.6-0.5,1-0.7c0.4-0.1,0.9-0.3,1.5-0.3
				c0.5-0.1,1.6-0.2,1.7-0.2c0.1,0,0.2-0.1,0.2,0.3c0,0.2-0.3,1.4-0.5,1.9C413.9,32.9,413.7,33.1,413.6,33.2z"/>
			<g>
				<g>
					<path class="st1" d="M467.6,20.3h-2.1c0,0,0,0,0,0l0,0c-0.5,0-0.9,0.4-1.1,0.8c0,0,0,0,0,0.1c0,0,0,0.2-0.1,0.5l-2.9,13
						c-0.1,0.3-0.1,0.5-0.1,0.5l0,0c-0.1,0.4,0.2,0.8,0.6,0.9l0,0h0.1h2.1h0c0.5,0,0.9-0.4,1.1-0.8c0,0,0,0,0-0.1l3.1-14l0,0
						C468.4,20.7,468.1,20.3,467.6,20.3z"/>
				</g>
			</g>
		</g>
	</g>
	<g>
		<path class="st3" d="M94.7,56c0,1.7-1.4,3.2-3.2,3.2H3.2C1.4,59.2,0,57.8,0,56V3.2C0,1.4,1.4,0,3.2,0h88.4c1.7,0,3.2,1.4,3.2,3.2
			V56z"/>
		<g>
			<polygon class="st4" points="61,50 62,49.9 63.1,49.9 64.1,49.7 65.1,49.5 66.1,49.3 67,49 68,48.7 68.9,48.4 69.8,47.9 
				70.7,47.5 71.5,47 72.4,46.5 73.2,45.9 73.9,45.3 74.7,44.7 75.4,44 76.1,43.3 76.7,42.5 77.3,41.8 77.9,41 78.4,40.1 78.9,39.3 
				79.4,38.4 79.8,37.5 80.1,36.6 80.5,35.6 80.7,34.6 81,33.7 81.1,32.7 81.3,31.6 81.3,30.6 81.4,29.5 81.3,28.5 81.3,27.5 
				81.1,26.5 81,25.5 80.7,24.5 80.5,23.5 80.1,22.6 79.8,21.6 79.4,20.7 78.9,19.9 78.4,19 77.9,18.2 77.3,17.4 76.7,16.6 
				76.1,15.9 75.4,15.2 74.7,14.5 73.9,13.9 73.2,13.3 72.4,12.7 71.5,12.2 70.7,11.7 69.8,11.2 68.9,10.8 68,10.4 67,10.1 
				66.1,9.9 65.1,9.6 64.1,9.4 63.1,9.3 62,9.2 61,9.2 59.9,9.2 58.9,9.3 57.9,9.4 56.9,9.6 55.9,9.9 54.9,10.1 54,10.4 53,10.8 
				52.1,11.2 51.3,11.7 50.4,12.2 49.6,12.7 48.8,13.3 48,13.9 47.3,14.5 46.6,15.2 45.9,15.9 45.3,16.6 44.7,17.4 44.1,18.2 
				43.6,19 43.1,19.9 42.6,20.7 42.2,21.6 41.9,22.6 41.5,23.5 41.3,24.5 41,25.5 40.9,26.5 40.7,27.5 40.7,28.5 40.6,29.5 
				40.7,30.6 40.7,31.6 40.9,32.7 41,33.7 41.3,34.6 41.5,35.6 41.9,36.6 42.2,37.5 42.6,38.4 43.1,39.3 43.6,40.1 44.1,41 
				44.7,41.8 45.3,42.5 45.9,43.3 46.6,44 47.3,44.7 48,45.3 48.8,45.9 49.6,46.5 50.4,47 51.3,47.5 52.1,47.9 53,48.4 54,48.7 
				54.9,49 55.9,49.3 56.9,49.5 57.9,49.7 58.9,49.9 59.9,49.9 61,50 61,50 			"/>
			<polygon class="st5" points="33.7,50 34.8,49.9 35.8,49.9 36.8,49.7 37.8,49.5 38.8,49.3 39.8,49 40.7,48.7 41.6,48.4 42.5,47.9 
				43.4,47.5 44.3,47 45.1,46.5 45.9,45.9 46.6,45.3 47.4,44.7 48.1,44 48.8,43.3 49.4,42.5 50,41.8 50.6,41 51.1,40.1 51.6,39.3 
				52,38.4 52.4,37.5 52.8,36.6 53.1,35.6 53.4,34.6 53.6,33.7 53.8,32.7 53.9,31.6 54,30.6 54,29.5 54,28.5 53.9,27.5 53.8,26.5 
				53.6,25.5 53.4,24.5 53.1,23.5 52.8,22.6 52.4,21.6 52,20.7 51.6,19.9 51.1,19 50.6,18.2 50,17.4 49.4,16.6 48.8,15.9 48.1,15.2 
				47.4,14.5 46.6,13.9 45.9,13.3 45.1,12.7 44.3,12.2 43.4,11.7 42.5,11.2 41.6,10.8 40.7,10.4 39.8,10.1 38.8,9.9 37.8,9.6 
				36.8,9.4 35.8,9.3 34.8,9.2 33.7,9.2 32.7,9.2 31.6,9.3 30.6,9.4 29.6,9.6 28.6,9.9 27.6,10.1 26.7,10.4 25.8,10.8 24.9,11.2 
				24,11.7 23.1,12.2 22.3,12.7 21.5,13.3 20.7,13.9 20,14.5 19.3,15.2 18.6,15.9 18,16.6 17.4,17.4 16.8,18.2 16.3,19 15.8,19.9 
				15.3,20.7 14.9,21.6 14.5,22.6 14.2,23.5 13.9,24.5 13.7,25.5 13.5,26.5 13.4,27.5 13.3,28.5 13.3,29.5 13.3,30.6 13.4,31.6 
				13.5,32.7 13.7,33.7 13.9,34.6 14.2,35.6 14.5,36.6 14.9,37.5 15.3,38.4 15.8,39.3 16.3,40.1 16.8,41 17.4,41.8 18,42.5 
				18.6,43.3 19.3,44 20,44.7 20.7,45.3 21.5,45.9 22.3,46.5 23.1,47 24,47.5 24.9,47.9 25.8,48.4 26.7,48.7 27.6,49 28.6,49.3 
				29.6,49.5 30.6,49.7 31.6,49.9 32.7,49.9 33.7,50 33.7,50 			"/>
			<polygon class="st4" points="45,17 55.8,17 55.8,15.9 45.9,15.9 45,17 45,17 			"/>
			<polygon class="st4" points="43.3,19.5 55.8,19.5 55.8,18.4 44,18.4 43.3,19.5 43.3,19.5 			"/>
			<polygon class="st4" points="42.1,21.9 55.8,21.9 55.8,20.8 42.6,20.8 42.1,21.9 42.1,21.9 			"/>
			<polygon class="st4" points="41.3,24.4 55.8,24.4 55.8,23.3 41.6,23.3 41.3,24.4 41.3,24.4 			"/>
			<polygon class="st4" points="41.8,36.3 55.8,36.3 55.8,35.2 41.4,35.2 41.8,36.3 41.8,36.3 			"/>
			<polygon class="st4" points="42.8,38.7 55.8,38.7 55.8,37.6 42.3,37.6 42.8,38.7 42.8,38.7 			"/>
			<polygon class="st4" points="44.3,41.2 55.8,41.2 55.8,40.1 43.6,40.1 44.3,41.2 44.3,41.2 			"/>
			<polygon class="st4" points="46.3,43.7 55.8,43.7 55.8,42.6 45.3,42.6 46.3,43.7 46.3,43.7 			"/>
			<polygon class="st4" points="40.8,26.9 55.8,26.9 55.8,25.7 41,25.7 40.8,26.9 40.8,26.9 			"/>
			<polygon class="st4" points="49.9,33.8 55.6,33.8 55.6,32.7 50.1,32.7 49.9,33.8 49.9,33.8 			"/>
			<polygon class="st4" points="50.4,31.4 55.6,31.4 55.6,30.3 50.6,30.3 50.4,31.4 50.4,31.4 			"/>
			<polygon class="st4" points="40.4,30.3 41.9,30.3 41.9,31.4 40.5,31.4 40.4,30.3 40.4,30.3 			"/>
			<polygon class="st6" points="78.2,33.8 78.2,33.6 78.2,33.4 78.3,33.3 78.4,33.1 78.6,33 78.8,32.9 78.9,32.9 79.1,32.8 
				79.3,32.9 79.5,32.9 79.7,33 79.8,33.1 79.9,33.3 80,33.4 80.1,33.6 80.1,33.8 79.9,33.8 79.9,33.6 79.8,33.5 79.8,33.3 
				79.7,33.2 79.6,33.1 79.4,33.1 79.3,33 79.1,33 79,33 78.8,33.1 78.7,33.1 78.6,33.2 78.5,33.3 78.4,33.5 78.4,33.6 78.4,33.8 
				78.2,33.8 78.2,33.8 			"/>
			<polygon class="st6" points="78.8,33.8 78.8,33.3 79.2,33.3 79.2,33.4 79.3,33.4 79.4,33.4 79.4,33.4 79.5,33.5 79.5,33.5 
				79.5,33.5 79.5,33.6 79.5,33.7 79.5,33.7 79.5,33.7 79.4,33.8 79.2,33.8 79.2,33.8 79.2,33.7 79.3,33.7 79.3,33.7 79.3,33.7 
				79.4,33.7 79.4,33.6 79.4,33.6 79.4,33.6 79.3,33.5 79.3,33.5 79.3,33.5 79.3,33.5 79.2,33.5 79.2,33.5 79.2,33.5 79,33.5 
				79,33.8 78.8,33.8 78.8,33.8 			"/>
			<polygon class="st6" points="78.2,33.8 78.2,33.8 78.2,34 78.2,34.2 78.3,34.4 78.4,34.5 78.6,34.6 78.8,34.7 78.9,34.8 
				79.1,34.8 79.3,34.8 79.5,34.7 79.7,34.6 79.8,34.5 79.9,34.4 80,34.2 80.1,34 80.1,33.8 80.1,33.8 79.9,33.8 79.9,33.8 79.9,34 
				79.8,34.1 79.8,34.2 79.7,34.4 79.6,34.5 79.4,34.5 79.3,34.6 79.1,34.6 79,34.6 78.8,34.5 78.7,34.5 78.6,34.4 78.5,34.2 
				78.4,34.1 78.4,34 78.4,33.8 78.4,33.8 78.2,33.8 78.2,33.8 			"/>
			<polygon class="st6" points="78.8,33.8 78.8,34.2 79,34.2 79,33.8 79.1,33.8 79.3,34.2 79.5,34.2 79.3,33.8 79.3,33.8 79.4,33.8 
				79.4,33.8 79.4,33.8 79.4,33.8 79.2,33.8 79.1,33.8 79,33.8 79,33.8 78.8,33.8 78.8,33.8 			"/>
			<path class="st7" d="M78.2,33.8L78.2,33.8l0-0.2l0.1-0.2l0.1-0.2l0.1-0.1l0.1-0.1l0.2-0.1l0.2-0.1l0.2,0l0,0l0.2,0l0.2,0.1
				l0.2,0.1l0.1,0.1l0.1,0.1l0.1,0.2l0.1,0.2l0,0.2l0,0l0,0.2L80,34.2l-0.1,0.2l-0.1,0.1l-0.1,0.1l-0.2,0.1l-0.2,0.1l-0.2,0l0,0
				l-0.2,0l-0.2-0.1l-0.2-0.1l-0.1-0.1l-0.1-0.1l-0.1-0.2L78.2,34L78.2,33.8 M79,34.2h-0.2v-0.8h0.4l0,0l0.1,0l0.1,0l0.1,0l0,0l0,0
				l0,0l0,0l0,0l0,0l0,0.1l0,0l0,0l0,0l0,0l0,0l0,0h0l0.2,0.3h-0.1l-0.2-0.3H79V34.2 M79.1,33.8L79.1,33.8L79.1,33.8l0.1,0l0,0l0,0
				l0,0l0,0l0,0v0l0,0l0,0l0,0l0,0l0,0l0,0l0,0h0h0H79v0.3H79.1 M79.1,34.6L79.1,34.6l0.2,0l0.2,0l0.1-0.1l0.1-0.1l0.1-0.1l0.1-0.1
				l0-0.2l0-0.2l0,0l0-0.2l0-0.2l-0.1-0.1l-0.1-0.1l-0.1-0.1l-0.1-0.1l-0.2,0l-0.2,0l0,0L79,33l-0.2,0l-0.1,0.1l-0.1,0.1l-0.1,0.1
				l-0.1,0.1l0,0.2l0,0.2l0,0l0,0.2l0,0.2l0.1,0.1l0.1,0.1l0.1,0.1l0.1,0.1l0.2,0L79.1,34.6"/>
			<polygon class="st4" points="78.2,41.9 78.2,41.9 78.2,41.7 78.3,41.6 78.4,41.4 78.6,41.3 78.8,41.2 78.9,41.2 79.1,41.2 
				79.3,41.2 79.5,41.2 79.7,41.3 79.8,41.4 79.9,41.6 80,41.7 80.1,41.9 80.1,41.9 79.9,41.9 79.8,41.8 79.8,41.7 79.7,41.5 
				79.6,41.4 79.4,41.4 79.3,41.3 79.1,41.3 79,41.3 78.8,41.4 78.7,41.4 78.6,41.5 78.5,41.7 78.4,41.8 78.4,41.9 78.2,41.9 
				78.2,41.9 			"/>
			<polygon class="st4" points="78.8,41.9 78.8,41.7 79.2,41.7 79.2,41.7 79.3,41.7 79.4,41.7 79.4,41.7 79.5,41.8 79.5,41.8 
				79.5,41.9 79.5,41.9 79.4,41.9 79.4,41.9 79.4,41.9 79.3,41.8 79.3,41.8 79.3,41.8 79.3,41.8 79.2,41.8 79.2,41.8 79.2,41.8 
				79,41.8 79,41.9 78.8,41.9 78.8,41.9 			"/>
			<polygon class="st4" points="78.2,42.1 78.2,41.9 78.4,41.9 78.4,41.9 78.4,42.1 78.2,42.1 78.2,42.1 			"/>
			<polygon class="st4" points="78.8,42.1 78.8,41.9 79,41.9 79,42.1 79.1,42.1 79.2,42.1 79.2,42 79.3,42 79.3,42 79.3,42 79.4,42 
				79.4,41.9 79.4,41.9 79.5,41.9 79.5,41.9 79.5,42 79.5,42 79.5,42.1 79.4,42.1 78.8,42.1 78.8,42.1 			"/>
			<polygon class="st4" points="79.9,42.1 79.9,41.9 79.9,41.9 80.1,41.9 80.1,42.1 79.9,42.1 79.9,42.1 			"/>
			<polygon class="st4" points="78.2,42.1 78.2,42.1 78.2,42.3 78.2,42.5 78.3,42.7 78.4,42.8 78.6,42.9 78.8,43 78.9,43.1 
				79.1,43.1 79.3,43.1 79.5,43 79.7,42.9 79.8,42.8 79.9,42.7 80,42.5 80.1,42.3 80.1,42.1 80.1,42.1 79.9,42.1 79.9,42.1 
				79.9,42.3 79.8,42.4 79.8,42.6 79.7,42.7 79.6,42.8 79.4,42.8 79.3,42.9 79.1,42.9 79,42.9 78.8,42.8 78.7,42.8 78.6,42.7 
				78.5,42.6 78.4,42.4 78.4,42.3 78.4,42.1 78.4,42.1 78.2,42.1 78.2,42.1 			"/>
			<polygon class="st4" points="78.8,42.1 78.8,42.5 79,42.5 79,42.1 79.1,42.1 79.3,42.5 79.5,42.5 79.3,42.1 79.3,42.1 79.4,42.1 
				79.4,42.1 79.4,42.1 79.4,42.1 78.8,42.1 78.8,42.1 			"/>
			<g>
				<g>
					<polygon class="st8" points="32.2,30.1 32.3,30 32.3,29.9 32.4,29.8 32.5,29.7 32.6,29.7 32.7,29.6 32.9,29.5 33,29.5 
						33.2,29.5 33.4,29.4 33.6,29.4 33.9,29.4 34.1,29.4 34.3,29.4 34.4,29.4 34.6,29.4 34.7,29.4 34.9,29.4 35,29.5 35.1,29.5 
						35.2,29.5 35.3,29.5 35.5,29.5 35.6,29.5 35.7,29.6 35.8,29.6 36.3,27.5 36.2,27.5 36.1,27.5 36,27.5 36,27.5 35.9,27.5 
						35.7,27.4 35.6,27.4 35.5,27.4 35.3,27.4 35.1,27.4 34.9,27.4 34.7,27.3 34.4,27.3 34.2,27.3 33.8,27.3 33.5,27.3 33,27.3 
						32.5,27.4 32.1,27.4 31.7,27.5 31.3,27.6 31,27.7 30.7,27.9 30.4,28 30.2,28.2 30,28.5 29.8,28.7 29.7,29 29.6,29.3 29.5,29.6 
						29.4,29.9 29.4,30.2 29.4,30.8 29.5,31.3 29.6,31.7 29.9,32.1 30.1,32.3 30.5,32.6 30.8,32.8 31.2,32.9 31.5,33.1 31.9,33.2 
						32.2,33.3 32.4,33.5 32.7,33.6 32.8,33.8 32.9,34 32.9,34.3 32.9,34.4 32.8,34.5 32.7,34.7 32.6,34.8 32.5,34.9 32.4,35 
						32.1,35.1 31.9,35.2 31.6,35.2 31.4,35.2 31.1,35.2 30.8,35.2 30.6,35.1 30.4,35.1 30.1,35.1 29.9,35 29.7,35 29.5,35 
						29.3,34.9 29.1,34.9 29,34.8 28.9,34.8 28.8,34.8 28.7,34.8 28.3,36.8 28.4,36.8 28.6,36.9 28.7,36.9 28.9,37 29,37 29.2,37 
						29.4,37.1 29.6,37.1 29.8,37.1 30,37.1 30.2,37.1 30.5,37.1 30.8,37.2 31.1,37.2 31.5,37.2 31.8,37.2 32.1,37.2 32.4,37.1 
						32.7,37.1 33,37.1 33.3,37 33.6,36.9 33.9,36.8 34.2,36.6 34.5,36.5 34.8,36.3 35,36.1 35.2,35.8 35.4,35.5 35.5,35.2 
						35.6,34.8 35.7,34.4 35.7,33.8 35.7,33.3 35.6,32.9 35.5,32.6 35.3,32.3 35,32.1 34.8,31.9 34.5,31.7 34.2,31.6 33.9,31.5 
						33.6,31.4 33.4,31.3 33.1,31.2 32.8,31.1 32.6,31 32.4,30.8 32.3,30.7 32.3,30.6 32.2,30.4 32.2,30.3 32.2,30.2 					"/>
					<polygon class="st8" points="40.7,35.1 40.6,35.1 40.5,35.1 40.3,35.2 40.2,35.2 40,35.2 39.8,35.2 39.6,35.2 39.4,35.2 
						39.2,35.1 39.1,35 38.9,34.9 38.8,34.8 38.8,34.7 38.8,34.5 39.7,29.5 41.3,29.5 41.6,27.5 40.1,27.5 40.4,25.3 38,25.3 
						36.2,35.1 36.2,35.4 36.2,35.6 36.2,35.8 36.2,35.9 36.2,36.1 36.3,36.3 36.3,36.4 36.4,36.5 36.5,36.7 36.7,36.8 36.9,36.9 
						37.1,36.9 37.3,37 37.6,37.1 37.9,37.1 38.3,37.1 39,37.1 39.1,37.1 39.2,37.1 39.4,37.1 39.5,37 39.6,37 39.7,37 39.8,37 
						39.9,37 40,36.9 40.1,36.9 40.1,36.9 40.2,36.9 40.3,36.8 40.3,36.8 40.4,36.8 40.4,36.7 40.8,35 40.7,35 					"/>
					<polygon class="st8" points="64.5,27.8 64.6,27.9 64.8,27.9 64.9,28 65,28 65.5,25.5 65.4,25.5 65.3,25.5 65.2,25.5 65.1,25.4 
						64.9,25.4 64.8,25.3 64.6,25.2 64.4,25.2 64.2,25.1 63.9,25.1 63.7,25 63.4,25 63.2,25 62.9,24.9 62.6,24.9 62.3,24.9 62,24.9 
						61.7,24.9 61.3,25 61,25 60.7,25.1 60.4,25.1 60.2,25.2 59.9,25.3 59.6,25.4 59.4,25.5 59.1,25.6 58.9,25.8 58.7,25.9 
						58.4,26.1 58.2,26.2 58,26.4 57.8,26.6 57.7,26.8 57.5,27 57.3,27.2 57.2,27.5 57,27.7 56.9,28 56.7,28.3 56.6,28.5 56.5,28.8 
						56.4,29.1 56.3,29.5 56.2,29.8 56.1,30.1 56,30.5 55.9,30.9 55.9,31.6 55.8,32.3 55.9,33 56,33.6 56.1,34.1 56.4,34.6 
						56.6,35.1 56.9,35.5 57.2,35.8 57.6,36.1 58,36.4 58.4,36.6 58.8,36.8 59.2,36.9 59.6,37 60,37.1 60.5,37.1 61,37.1 61.4,37.1 
						61.7,37.1 62.1,37 62.3,37 62.6,37 62.8,36.9 62.9,36.9 63.1,36.8 63.2,36.7 63.3,36.7 63.4,36.6 63.4,36.5 63.5,36.5 
						63.6,36.4 64,34 63.8,34.2 63.6,34.3 63.4,34.5 63.2,34.6 62.9,34.6 62.7,34.7 62.5,34.7 62.2,34.8 62,34.8 61.8,34.8 
						61.6,34.8 61.4,34.8 61.2,34.7 61,34.7 60.9,34.7 60.8,34.7 60.5,34.6 60.1,34.5 59.9,34.3 59.6,34.2 59.4,34 59.2,33.8 
						59.1,33.6 58.9,33.3 58.8,33 58.7,32.8 58.7,32.5 58.7,32.2 58.6,31.9 58.7,31.6 58.7,31.2 58.8,30.9 58.9,30.3 59.1,29.8 
						59.3,29.4 59.5,29 59.7,28.7 59.9,28.4 60.1,28.1 60.4,27.9 60.6,27.8 60.9,27.7 61.1,27.6 61.4,27.5 61.6,27.4 61.9,27.4 
						62.1,27.4 62.3,27.4 62.6,27.4 62.8,27.4 63,27.4 63.2,27.4 63.4,27.5 63.6,27.5 63.7,27.5 63.9,27.6 64.1,27.6 64.2,27.7 
						64.4,27.7 					"/>
					<path class="st8" d="M86.7,25.4l-0.6,3.5L86,28.8L86,28.7l-0.1-0.1l-0.1-0.1l-0.1-0.1l-0.1-0.1l-0.1-0.1L85.3,28l-0.2-0.1
						l-0.2-0.1l-0.2-0.1l-0.2-0.1l-0.2-0.1l-0.2,0l-0.2,0l-0.3,0l-0.4,0l-0.4,0.1l-0.4,0.1l-0.4,0.1l-0.3,0.2l-0.3,0.2l-0.3,0.2
						l-0.3,0.3l-0.3,0.3l-0.3,0.3L80,29.6L79.7,30l-0.2,0.4l-0.2,0.5l-0.2,0.5L79,31.9L79,32.4l0,0.5l0,0.5l0,0.5l0.1,0.5l0.1,0.4
						l0.1,0.4l0.2,0.4l0.2,0.4l0.3,0.3l0.3,0.3l0.3,0.3l0.4,0.2l0.4,0.2l0.4,0.1l0.5,0h0.2l0.2,0l0.2,0l0.2,0l0.2,0l0.2,0l0.2,0
						l0.2-0.1l0.2-0.1l0.2-0.1l0.2-0.1l0.2-0.1l0.2-0.1l0.2-0.1l0.2-0.2l0.1-0.2v0.1l-0.2,1h2.5l2-11.8H86.7z M85.5,31.9l0,0.3
						l0,0.3l0,0.2l-0.1,0.2l-0.1,0.2l-0.1,0.2L85,33.6l-0.1,0.2L84.8,34l-0.1,0.2l-0.2,0.2l-0.2,0.2l-0.2,0.1L84,34.7l-0.2,0.1
						l-0.2,0.1l-0.2,0.1l-0.3,0l-0.4-0.1l-0.3-0.2l-0.2-0.3L82,34l-0.1-0.4l-0.1-0.4l0-0.4l0-0.4l0.1-0.3l0.1-0.3l0.1-0.2l0.1-0.2
						l0.1-0.2l0.1-0.2l0.1-0.2l0.1-0.2l0.2-0.2l0.2-0.2l0.2-0.1l0.2-0.1l0.2-0.1l0.2-0.1l0.2,0l0.2,0l0.2,0l0.2,0l0.2,0.1l0.2,0.1
						L85,30l0.1,0.1l0.1,0.2l0.1,0.2l0.1,0.2l0.1,0.2l0,0.2l0,0.2l0,0.3V31.9z"/>
					<path class="st8" d="M28.8,29.4l-0.1-0.3l-0.1-0.3l-0.2-0.2l-0.2-0.2l-0.2-0.2L27.7,28l-0.3-0.2l-0.3-0.1l-0.3-0.1l-0.3-0.1
						l-0.3-0.1l-0.3,0l-0.3,0l-0.3,0l-0.3,0h-0.3h-0.3h-0.3l-0.3,0l-0.3,0l-0.3,0l-0.2,0l-0.2,0l-0.2,0l-0.2,0l-0.2,0l-0.2,0.1
						L22,27.7l-0.2,0.1L21.1,30l0.1-0.1l0.1-0.1l0.2-0.1l0.2-0.1l0.2,0l0.2,0l0.3,0l0.3,0l0.3,0l0.3,0l0.3,0l0.3,0l0.3,0h0.3l0.3,0
						l0.3,0l0.2,0l0.2,0.1l0.2,0.1l0.2,0.1l0.1,0.1L26,30l0.1,0.2l0,0.2l0,0.2l0,0.2L26,30.9l0,0.1h0l-0.1,0l-0.1,0l-0.2,0h-0.2
						l-0.2,0L25,31h-0.2h-0.1l-0.1,0l-0.1,0l-0.1,0l-0.1,0l-0.2,0l-0.2,0l-0.2,0l-0.2,0l-0.1,0l-0.1,0l-0.1,0l-0.1,0l-0.1,0l0,0h0
						l-0.3,0.1l-0.3,0.1L22,31.4l-0.3,0.1l-0.3,0.1l-0.3,0.2L20.9,32l-0.2,0.2l-0.2,0.2l-0.2,0.3L20.1,33L20,33.2l-0.1,0.3l-0.1,0.3
						l-0.1,0.3l0,0.4v0.2l0,0.2l0,0.2l0,0.2l0.1,0.2l0.1,0.2l0.1,0.2l0.1,0.2l0.1,0.2l0.1,0.2l0.2,0.2l0.2,0.1l0.2,0.1l0.3,0.1
						l0.3,0.1l0.3,0.1l0.2,0l0.3,0l0.3,0l0.3,0l0.3,0l0.3-0.1l0.3-0.1l0.3-0.1l0.2-0.1l0.2-0.1l0.2-0.1l0.2-0.1l0.2-0.1l0.2-0.1
						l0.1-0.1l0.1-0.1l0,0.1l0,0.3l0,0.3l-0.1,0.4h2.3l0.4-2l0.9-4.7l0.1-0.4v-0.3L28.8,29.4z M25.7,33l-0.1,0.3l-0.1,0.3l-0.1,0.3
						l0,0.1l0,0.1l-0.1,0.1l-0.1,0.1l-0.1,0.1l-0.1,0.1L25,34.6l-0.1,0.1l-0.1,0.1l-0.2,0.1l-0.2,0.1L24.2,35L24,35.1l-0.2,0l-0.2,0
						l-0.3,0l-0.1,0l-0.1,0L22.9,35l-0.1-0.1l-0.1-0.1l-0.1-0.2l0-0.2l0-0.3l0-0.1l0.1-0.1l0.1-0.1l0.1-0.1l0.1-0.1l0.1-0.1l0.1-0.1
						l0.1-0.1l0.1-0.1l0.1-0.1l0.1-0.1l0.1-0.1l0.1,0l0.1,0l0.1,0l0.1,0l0.1,0l0.1,0l0.1,0l0.1,0l0.1,0l0.1,0l0.2,0l0.1,0h0.1h0.1
						l0.1,0l0.1,0l0.1,0l0.1,0l0,0l0,0L25.7,33z"/>
					<polygon class="st8" points="16.1,25.3 13.2,32.3 12.8,25.3 8.5,25.3 6.5,37.1 9,37.1 10.4,28.3 10.5,28.3 10.6,28.3 
						10.6,28.3 10.6,28.7 10.7,29.8 10.7,31.2 10.8,32.8 10.9,34.4 11,35.8 11.1,36.8 11.1,37.1 13.8,37.1 17.5,28.3 17.6,28.3 
						16.1,37.1 18.5,37.1 20.6,25.3 					"/>
					<path class="st8" d="M73.4,29.4l-0.1-0.3l-0.1-0.3L73,28.6l-0.2-0.2l-0.2-0.2L72.3,28L72,27.8l-0.3-0.1l-0.3-0.1l-0.3-0.1
						l-0.3-0.1l-0.3,0l-0.3,0l-0.3,0l-0.3,0h-0.3h-0.3h-0.3l-0.3,0l-0.3,0l-0.3,0l-0.2,0l-0.2,0l-0.2,0l-0.2,0l-0.2,0l-0.2,0.1
						l-0.2,0.1l-0.2,0.1L65.8,30l0.1-0.1l0.1-0.1l0.2-0.1l0.2-0.1l0.2,0l0.2,0l0.3,0l0.3,0l0.3,0l0.3,0l0.3,0l0.3,0l0.3,0h0.3l0.3,0
						l0.3,0l0.2,0l0.2,0.1l0.2,0.1l0.2,0.1l0.1,0.1l0.1,0.2l0.1,0.2l0,0.2l0,0.2l0,0.2l0,0.2l0,0.1h0l-0.1,0l-0.1,0l-0.2,0H70
						l-0.2,0l-0.2,0h-0.2h-0.1l-0.1,0L69,31l-0.1,0l-0.2,0l-0.2,0l-0.2,0l-0.2,0l-0.1,0l-0.1,0l-0.1,0l-0.1,0l-0.1,0l-0.1,0l0,0h0
						l-0.3,0.1l-0.3,0.1l-0.3,0.1l-0.3,0.1L66,31.6l-0.3,0.2L65.5,32l-0.2,0.2l-0.2,0.2l-0.2,0.3L64.7,33l-0.1,0.3l-0.1,0.3
						l-0.1,0.3l-0.1,0.3l0,0.4v0.2l0,0.2l0,0.2l0,0.2l0,0.2l0.1,0.2l0.1,0.2l0.1,0.2l0.1,0.2l0.1,0.2l0.2,0.2l0.2,0.1l0.2,0.1
						l0.3,0.1l0.3,0.1l0.3,0.1l0.2,0l0.2,0l0.2,0l0.3,0l0.2,0l0.3,0l0.2-0.1l0.2-0.1l0.2-0.1l0.2-0.1l0.2-0.1l0.2-0.1l0.2-0.1
						l0.2-0.1l0.1-0.1l0.1-0.1l0,0.1v0.2l0,0.3l0,0.4h2.3l0.4-2l0.9-4.7l0-0.4v-0.3L73.4,29.4z M70.3,33l0,0.3l0,0.3l0,0.3l0,0.1
						l0,0.1l0,0.1L70,34.2l-0.1,0.1l-0.1,0.1l-0.1,0.1l-0.1,0.1l-0.1,0.1l-0.2,0.1l-0.2,0.1L68.9,35L68.7,35l-0.2,0l-0.3,0l-0.3,0
						l-0.2,0l-0.2,0L67.5,35l-0.1-0.1l-0.1-0.1l-0.1-0.2l0-0.2l0-0.3l0-0.2l0.1-0.1l0.1-0.1l0.1-0.1l0.1-0.1l0.1-0.1l0.1-0.1
						l0.1-0.1l0.1-0.1L68,33l0.1-0.1l0.1-0.1l0.1,0l0.1,0l0.1,0l0.1,0l0.1,0l0.1,0l0.1,0l0.1,0l0.1,0l0.1,0l0.1,0l0.1,0l0.1,0h0.1
						l0.1,0l0.1,0l0.1,0l0.1,0l0,0l0,0.1L70.3,33z"/>
					<polygon class="st8" points="79.3,29.7 79.4,29.7 79.5,29.7 79.5,29.7 79.9,27.4 79.6,27.4 79.4,27.4 79.2,27.5 79,27.5 
						78.8,27.6 78.6,27.7 78.4,27.8 78.2,27.9 78.1,28 77.9,28.2 77.8,28.3 77.6,28.5 77.5,28.6 77.3,28.8 77.2,28.9 77.1,29.1 
						77.4,27.5 74.8,27.5 73.1,37.1 75.7,37.1 76.6,32 76.6,31.8 76.7,31.6 76.7,31.4 76.8,31.2 76.9,31 77,30.8 77.1,30.6 
						77.3,30.5 77.4,30.3 77.6,30.2 77.8,30 78,29.9 78.3,29.9 78.6,29.8 78.9,29.7 					"/>
					<polygon class="st8" points="55.9,28.4 56,28.3 56.1,28.1 56.2,27.9 56.3,27.8 56.4,27.6 56.4,27.5 56.5,27.5 56.5,27.4 
						56.5,27.4 56.5,27.4 56.4,27.4 56.3,27.4 56.3,27.4 56.2,27.4 56.1,27.4 56.1,27.4 55.8,27.4 55.6,27.4 55.3,27.5 55.1,27.5 
						54.9,27.6 54.7,27.7 54.5,27.8 54.4,27.9 54.2,28 54.1,28.2 53.9,28.3 53.8,28.4 53.7,28.6 53.5,28.8 53.4,28.9 53.3,29.1 
						53.6,27.5 51,27.5 49.3,37.1 51.9,37.1 51.9,37.1 52.8,32 52.8,31.8 52.9,31.6 52.9,31.4 53,31.3 53,31.1 53.1,30.9 53.2,30.7 
						53.4,30.6 53.5,30.5 53.7,30.3 53.9,30.2 54.1,30.1 54.3,30 54.6,30 54.9,29.9 55.3,29.9 55.3,29.9 55.3,29.9 55.4,29.9 
						55.4,29.9 55.5,29.9 55.5,29.9 55.5,29.9 55.5,29.9 55.6,29.9 55.6,29.8 55.6,29.6 55.7,29.4 55.7,29.2 55.8,28.9 55.9,28.7 
											"/>
					<path class="st8" d="M48.6,34.7l-0.3,0.1L48,34.9L47.8,35L47.6,35l-0.2,0l-0.2,0l-0.2,0l-0.2,0h-0.2l-0.2,0l-0.2,0l-0.2,0
						l-0.2,0l-0.2,0L45,35l-0.2-0.1l-0.2-0.1l-0.2-0.1l-0.2-0.1l-0.1-0.1l-0.1-0.1l-0.1-0.2l-0.1-0.2l-0.1-0.2l-0.1-0.2l-0.1-0.2
						l0-0.2l0-0.2l0-0.2l0-0.1h5.8l0-0.5l0.1-0.8l0.1-0.7l0-0.6l-0.1-0.5l-0.1-0.5l-0.2-0.4L49,28.6l-0.3-0.3L48.5,28l-0.3-0.2
						l-0.3-0.2l-0.4-0.1l-0.4-0.1l-0.4-0.1l-0.4,0l-0.3,0l-0.7,0l-0.6,0.1L44,27.6l-0.5,0.2L43,28.1l-0.4,0.3l-0.3,0.3L42,29.1
						l-0.2,0.4l-0.2,0.4l-0.2,0.4l-0.1,0.4L41.1,31l-0.1,0.3L41,31.7l0,0.3l0,0.7l0,0.7l0.1,0.6l0.2,0.5l0.2,0.5l0.3,0.4l0.3,0.4
						l0.4,0.3l0.4,0.3l0.4,0.2l0.4,0.2l0.4,0.1l0.5,0.1l0.4,0.1l0.4,0l0.4,0h0.3l0.3,0h0.2l0.2,0l0.2,0l0.2,0l0.2,0l0.2,0l0.2,0
						l0.1,0l0.1,0l0.1,0l0.1-0.1l0.1-0.1l0.1-0.1l0.1-0.1l0.4-2.2l-0.3,0.2L48.6,34.7z M43.9,31.1l0-0.2l0.1-0.2l0.1-0.2l0.1-0.2
						l0.1-0.2l0.1-0.1l0.1-0.1l0.1-0.1l0.1-0.1l0.1-0.1l0.1-0.1l0.2-0.1l0.2-0.1l0.2,0l0.2,0l0.2,0l0.2,0l0.2,0l0.1,0l0.1,0.1
						l0.1,0.1l0.1,0.1l0.1,0.1l0.1,0.1l0.1,0.1L47,30l0.1,0.2l0.1,0.2l0,0.2l0,0.2l0,0.2l0,0.2h-3.3l0,0l0,0L43.9,31.1z"/>
				</g>
				<g>
					<g>
						<polygon class="st9" points="31.2,29.1 31.3,29 31.3,28.9 31.4,28.8 31.5,28.7 31.6,28.7 31.7,28.6 31.9,28.5 32,28.5 
							32.2,28.5 32.4,28.4 32.6,28.4 32.9,28.4 33.1,28.4 33.3,28.4 33.4,28.4 33.6,28.4 33.7,28.4 33.9,28.4 34,28.5 34.1,28.5 
							34.2,28.5 34.3,28.5 34.5,28.5 34.6,28.5 34.7,28.6 34.8,28.6 35.3,26.5 35.2,26.5 35.1,26.5 35,26.5 35,26.5 34.9,26.5 
							34.7,26.4 34.6,26.4 34.5,26.4 34.3,26.4 34.1,26.4 33.9,26.4 33.7,26.3 33.4,26.3 33.2,26.3 32.8,26.3 32.5,26.3 32,26.3 
							31.5,26.4 31.1,26.4 30.7,26.5 30.3,26.6 30,26.7 29.7,26.9 29.4,27 29.2,27.2 29,27.5 28.8,27.7 28.7,28 28.6,28.3 
							28.5,28.6 28.4,28.9 28.4,29.2 28.4,29.8 28.5,30.3 28.6,30.7 28.9,31.1 29.1,31.3 29.5,31.6 29.8,31.8 30.2,31.9 30.5,32.1 
							30.9,32.2 31.2,32.3 31.4,32.5 31.7,32.6 31.8,32.8 31.9,33 31.9,33.3 31.9,33.4 31.8,33.5 31.7,33.7 31.6,33.8 31.5,33.9 
							31.4,34 31.1,34.1 30.9,34.2 30.6,34.2 30.4,34.2 30.1,34.2 29.8,34.2 29.6,34.1 29.4,34.1 29.1,34.1 28.9,34 28.7,34 
							28.5,34 28.3,33.9 28.1,33.9 28,33.8 27.9,33.8 27.8,33.8 27.7,33.8 27.3,35.8 27.4,35.8 27.6,35.9 27.7,35.9 27.9,36 28,36 
							28.2,36 28.4,36.1 28.6,36.1 28.8,36.1 29,36.1 29.2,36.1 29.5,36.1 29.8,36.2 30.1,36.2 30.5,36.2 30.8,36.2 31.1,36.2 
							31.4,36.1 31.7,36.1 32,36.1 32.3,36 32.6,35.9 32.9,35.8 33.2,35.6 33.5,35.5 33.8,35.3 34,35.1 34.2,34.8 34.4,34.5 
							34.5,34.2 34.6,33.8 34.7,33.4 34.7,32.8 34.7,32.3 34.6,31.9 34.5,31.6 34.3,31.3 34,31.1 33.8,30.9 33.5,30.7 33.2,30.6 
							32.9,30.5 32.6,30.4 32.4,30.3 32.1,30.2 31.8,30.1 31.6,30 31.4,29.8 31.3,29.7 31.3,29.6 31.2,29.4 31.2,29.3 31.2,29.2 
													"/>
						<polygon class="st9" points="39.7,34.1 39.6,34.1 39.5,34.1 39.3,34.2 39.2,34.2 39,34.2 38.8,34.2 38.6,34.2 38.4,34.2 
							38.2,34.1 38.1,34 37.9,33.9 37.8,33.8 37.8,33.7 37.8,33.5 38.7,28.5 40.3,28.5 40.6,26.5 39.1,26.5 39.4,24.3 37,24.3 
							35.2,34.1 35.2,34.4 35.2,34.6 35.2,34.8 35.2,34.9 35.2,35.1 35.3,35.3 35.3,35.4 35.4,35.5 35.5,35.7 35.7,35.8 35.9,35.9 
							36.1,35.9 36.3,36 36.6,36.1 36.9,36.1 37.3,36.1 38,36.1 38.1,36.1 38.2,36.1 38.4,36.1 38.5,36 38.6,36 38.7,36 38.8,36 
							38.9,36 39,35.9 39.1,35.9 39.1,35.9 39.2,35.9 39.3,35.8 39.3,35.8 39.4,35.8 39.4,35.7 39.8,34 39.7,34 						"/>
						<polygon class="st9" points="63.5,26.8 63.6,26.9 63.8,26.9 63.9,27 64,27 64.5,24.5 64.4,24.5 64.3,24.5 64.2,24.5 
							64.1,24.4 63.9,24.4 63.8,24.3 63.6,24.2 63.4,24.2 63.2,24.1 62.9,24.1 62.7,24 62.4,24 62.2,24 61.9,23.9 61.6,23.9 
							61.3,23.9 61,23.9 60.7,23.9 60.3,24 60,24 59.7,24.1 59.4,24.1 59.2,24.2 58.9,24.3 58.6,24.4 58.4,24.5 58.1,24.6 
							57.9,24.8 57.7,24.9 57.4,25.1 57.2,25.2 57,25.4 56.8,25.6 56.7,25.8 56.5,26 56.3,26.2 56.2,26.5 56,26.7 55.9,27 
							55.7,27.3 55.6,27.5 55.5,27.8 55.4,28.1 55.3,28.5 55.2,28.8 55.1,29.1 55,29.5 54.9,29.9 54.9,30.6 54.8,31.3 54.9,32 
							55,32.6 55.1,33.1 55.4,33.6 55.6,34.1 55.9,34.5 56.2,34.8 56.6,35.1 57,35.4 57.4,35.6 57.8,35.8 58.2,35.9 58.6,36 
							59,36.1 59.5,36.1 60,36.1 60.4,36.1 60.7,36.1 61.1,36 61.3,36 61.6,36 61.8,35.9 61.9,35.9 62.1,35.8 62.2,35.7 62.3,35.7 
							62.4,35.6 62.4,35.5 62.5,35.5 62.6,35.4 63,33 62.8,33.2 62.6,33.3 62.4,33.5 62.2,33.6 61.9,33.6 61.7,33.7 61.5,33.7 
							61.2,33.8 61,33.8 60.8,33.8 60.6,33.8 60.4,33.8 60.2,33.7 60,33.7 59.9,33.7 59.8,33.7 59.5,33.6 59.1,33.5 58.9,33.3 
							58.6,33.2 58.4,33 58.2,32.8 58.1,32.6 57.9,32.3 57.8,32 57.7,31.8 57.7,31.5 57.7,31.2 57.6,30.9 57.7,30.6 57.7,30.2 
							57.8,29.9 57.9,29.3 58.1,28.8 58.3,28.4 58.5,28 58.7,27.7 58.9,27.4 59.1,27.1 59.4,26.9 59.6,26.8 59.9,26.7 60.1,26.6 
							60.4,26.5 60.6,26.4 60.9,26.4 61.1,26.4 61.3,26.4 61.6,26.4 61.8,26.4 62,26.4 62.2,26.4 62.4,26.5 62.6,26.5 62.7,26.5 
							62.9,26.6 63.1,26.6 63.2,26.7 63.4,26.7 						"/>
						<path class="st9" d="M85.7,24.4l-0.6,3.5L85,27.8L85,27.7l-0.1-0.1l-0.1-0.1l-0.1-0.1l-0.1-0.1l-0.1-0.1L84.3,27l-0.2-0.1
							l-0.2-0.1l-0.2-0.1l-0.2-0.1l-0.2-0.1l-0.2,0l-0.2,0l-0.3,0l-0.4,0l-0.4,0.1l-0.4,0.1l-0.4,0.1l-0.3,0.2l-0.3,0.2l-0.3,0.2
							l-0.3,0.3l-0.3,0.3l-0.3,0.3L79,28.6L78.7,29l-0.2,0.4l-0.2,0.5l-0.2,0.5L78,30.9L78,31.4l0,0.5l0,0.5l0,0.5l0.1,0.5l0.1,0.4
							l0.1,0.4l0.2,0.4l0.2,0.4l0.3,0.3l0.3,0.3l0.3,0.3l0.4,0.2l0.4,0.2l0.4,0.1l0.5,0h0.2l0.2,0l0.2,0l0.2,0l0.2,0l0.2,0l0.2,0
							l0.2-0.1l0.2-0.1l0.2-0.1l0.2-0.1l0.2-0.1l0.2-0.1l0.2-0.1l0.2-0.2l0.1-0.2v0.1l-0.2,1h2.5l2-11.8H85.7z M84.5,30.9l0,0.3
							l0,0.3l0,0.2l-0.1,0.2l-0.1,0.2l-0.1,0.2L84,32.6l-0.1,0.2L83.8,33l-0.1,0.2l-0.2,0.2l-0.2,0.2l-0.2,0.1L83,33.7l-0.2,0.1
							l-0.2,0.1l-0.2,0.1l-0.3,0l-0.4-0.1l-0.3-0.2l-0.2-0.3L81,33l-0.1-0.4l-0.1-0.4l0-0.4l0-0.4l0.1-0.3l0.1-0.3l0.1-0.2l0.1-0.2
							l0.1-0.2l0.1-0.2l0.1-0.2l0.1-0.2l0.2-0.2l0.2-0.2l0.2-0.1l0.2-0.1l0.2-0.1l0.2-0.1l0.2,0l0.2,0l0.2,0l0.2,0l0.2,0.1l0.2,0.1
							L84,29l0.1,0.1l0.1,0.2l0.1,0.2l0.1,0.2l0.1,0.2l0,0.2l0,0.2l0,0.3V30.9z"/>
						<path class="st9" d="M27.8,28.4l-0.1-0.3l-0.1-0.3l-0.2-0.2l-0.2-0.2l-0.2-0.2L26.7,27l-0.3-0.2l-0.3-0.1l-0.3-0.1l-0.3-0.1
							l-0.3-0.1l-0.3,0l-0.3,0l-0.3,0l-0.3,0h-0.3h-0.3h-0.3l-0.3,0l-0.3,0l-0.3,0l-0.2,0l-0.2,0l-0.2,0l-0.2,0l-0.2,0l-0.2,0.1
							L21,26.7l-0.2,0.1L20.1,29l0.1-0.1l0.1-0.1l0.2-0.1l0.2-0.1l0.2,0l0.2,0l0.3,0l0.3,0l0.3,0l0.3,0l0.3,0l0.3,0l0.3,0h0.3l0.3,0
							l0.3,0l0.2,0l0.2,0.1l0.2,0.1l0.2,0.1l0.1,0.1L25,29l0.1,0.2l0,0.2l0,0.2l0,0.2L25,29.9l0,0.1h0l-0.1,0l-0.1,0l-0.2,0h-0.2
							l-0.2,0L24,30h-0.2h-0.1l-0.1,0l-0.1,0l-0.1,0l-0.1,0l-0.2,0l-0.2,0l-0.2,0l-0.2,0l-0.1,0l-0.1,0l-0.1,0l-0.1,0l-0.1,0l0,0h0
							l-0.3,0.1l-0.3,0.1L21,30.4l-0.3,0.1l-0.3,0.1l-0.3,0.2L19.9,31l-0.2,0.2l-0.2,0.2l-0.2,0.3L19.1,32L19,32.2l-0.1,0.3
							l-0.1,0.3l-0.1,0.3l0,0.4v0.2l0,0.2l0,0.2l0,0.2l0.1,0.2l0.1,0.2l0.1,0.2l0.1,0.2l0.1,0.2l0.1,0.2l0.2,0.2l0.2,0.1l0.2,0.1
							l0.3,0.1l0.3,0.1l0.3,0.1l0.2,0l0.3,0l0.3,0l0.3,0l0.3,0l0.3-0.1l0.3-0.1l0.3-0.1l0.2-0.1l0.2-0.1l0.2-0.1l0.2-0.1l0.2-0.1
							l0.2-0.1l0.1-0.1l0.1-0.1l0,0.1l0,0.3l0,0.3l-0.1,0.4h2.3l0.4-2l0.9-4.7l0.1-0.4v-0.3L27.8,28.4z M24.7,32l-0.1,0.3l-0.1,0.3
							l-0.1,0.3l0,0.1l0,0.1l-0.1,0.1l-0.1,0.1l-0.1,0.1l-0.1,0.1L24,33.6l-0.1,0.1l-0.1,0.1l-0.2,0.1l-0.2,0.1L23.2,34L23,34.1
							l-0.2,0l-0.2,0l-0.3,0l-0.1,0l-0.1,0L21.9,34l-0.1-0.1l-0.1-0.1l-0.1-0.2l0-0.2l0-0.3l0-0.1l0.1-0.1l0.1-0.1l0.1-0.1l0.1-0.1
							l0.1-0.1l0.1-0.1l0.1-0.1l0.1-0.1l0.1-0.1l0.1-0.1l0.1-0.1l0.1,0l0.1,0l0.1,0l0.1,0l0.1,0l0.1,0l0.1,0l0.1,0l0.1,0l0.1,0
							l0.2,0l0.1,0h0.1h0.1l0.1,0l0.1,0l0.1,0l0.1,0l0,0l0,0L24.7,32z"/>
						<polygon class="st9" points="15.1,24.3 12.2,31.3 11.8,24.3 7.5,24.3 5.5,36.1 8,36.1 9.4,27.3 9.5,27.3 9.6,27.3 9.6,27.3 
							9.6,27.7 9.7,28.8 9.7,30.2 9.8,31.8 9.9,33.4 10,34.8 10.1,35.8 10.1,36.1 12.8,36.1 16.5,27.3 16.6,27.3 15.1,36.1 
							17.5,36.1 19.6,24.3 						"/>
						<path class="st9" d="M72.4,28.4l-0.1-0.3l-0.1-0.3L72,27.6l-0.2-0.2l-0.2-0.2L71.3,27L71,26.8l-0.3-0.1l-0.3-0.1l-0.3-0.1
							l-0.3-0.1l-0.3,0l-0.3,0l-0.3,0l-0.3,0h-0.3h-0.3h-0.3l-0.3,0l-0.3,0l-0.3,0l-0.2,0l-0.2,0l-0.2,0l-0.2,0l-0.2,0l-0.2,0.1
							l-0.2,0.1l-0.2,0.1L64.8,29l0.1-0.1l0.1-0.1l0.2-0.1l0.2-0.1l0.2,0l0.2,0l0.3,0l0.3,0l0.3,0l0.3,0l0.3,0l0.3,0l0.3,0h0.3
							l0.3,0l0.3,0l0.2,0l0.2,0.1l0.2,0.1l0.2,0.1l0.1,0.1l0.1,0.2l0.1,0.2l0,0.2l0,0.2l0,0.2l0,0.2l0,0.1h0l-0.1,0l-0.1,0l-0.2,0
							H69l-0.2,0l-0.2,0h-0.2h-0.1l-0.1,0L68,30l-0.1,0l-0.2,0l-0.2,0l-0.2,0l-0.2,0l-0.1,0l-0.1,0l-0.1,0l-0.1,0l-0.1,0l-0.1,0l0,0
							h0l-0.3,0.1l-0.3,0.1l-0.3,0.1l-0.3,0.1L65,30.6l-0.3,0.2L64.5,31l-0.2,0.2l-0.2,0.2l-0.2,0.3L63.7,32l-0.1,0.3l-0.1,0.3
							l-0.1,0.3l-0.1,0.3l0,0.4v0.2l0,0.2l0,0.2l0,0.2l0,0.2l0.1,0.2l0.1,0.2l0.1,0.2l0.1,0.2l0.1,0.2l0.2,0.2l0.2,0.1l0.2,0.1
							l0.3,0.1l0.3,0.1l0.3,0.1l0.2,0l0.2,0l0.2,0l0.3,0l0.2,0l0.3,0l0.2-0.1l0.2-0.1l0.2-0.1l0.2-0.1l0.2-0.1l0.2-0.1l0.2-0.1
							l0.2-0.1l0.1-0.1l0.1-0.1l0,0.1v0.2l0,0.3l0,0.4h2.3l0.4-2l0.9-4.7l0-0.4v-0.3L72.4,28.4z M69.3,32l0,0.3l0,0.3l0,0.3l0,0.1
							l0,0.1l0,0.1L69,33.2l-0.1,0.1l-0.1,0.1l-0.1,0.1l-0.1,0.1l-0.1,0.1l-0.2,0.1l-0.2,0.1L67.9,34L67.7,34l-0.2,0l-0.3,0l-0.3,0
							l-0.2,0l-0.2,0L66.5,34l-0.1-0.1l-0.1-0.1l-0.1-0.2l0-0.2l0-0.3l0-0.2l0.1-0.1l0.1-0.1l0.1-0.1l0.1-0.1l0.1-0.1l0.1-0.1
							l0.1-0.1l0.1-0.1L67,32l0.1-0.1l0.1-0.1l0.1,0l0.1,0l0.1,0l0.1,0l0.1,0l0.1,0l0.1,0l0.1,0l0.1,0l0.1,0l0.1,0l0.1,0l0.1,0h0.1
							l0.1,0l0.1,0l0.1,0l0.1,0l0,0l0,0.1L69.3,32z"/>
						<polygon class="st9" points="78.3,28.7 78.4,28.7 78.5,28.7 78.5,28.7 78.9,26.4 78.6,26.4 78.4,26.4 78.2,26.5 78,26.5 
							77.8,26.6 77.6,26.7 77.4,26.8 77.2,26.9 77.1,27 76.9,27.2 76.8,27.3 76.6,27.5 76.5,27.6 76.3,27.8 76.2,27.9 76.1,28.1 
							76.4,26.5 73.8,26.5 72.1,36.1 74.7,36.1 75.6,31 75.6,30.8 75.7,30.6 75.7,30.4 75.8,30.2 75.9,30 76,29.8 76.1,29.6 
							76.3,29.5 76.4,29.3 76.6,29.2 76.8,29 77,28.9 77.3,28.9 77.6,28.8 77.9,28.7 						"/>
						<polygon class="st9" points="54.9,27.4 55,27.3 55.1,27.1 55.2,26.9 55.3,26.8 55.4,26.6 55.4,26.5 55.5,26.5 55.5,26.4 
							55.5,26.4 55.5,26.4 55.4,26.4 55.3,26.4 55.3,26.4 55.2,26.4 55.1,26.4 55.1,26.4 54.8,26.4 54.6,26.4 54.3,26.5 54.1,26.5 
							53.9,26.6 53.7,26.7 53.5,26.8 53.4,26.9 53.2,27 53.1,27.2 52.9,27.3 52.8,27.4 52.7,27.6 52.5,27.8 52.4,27.9 52.3,28.1 
							52.6,26.5 50,26.5 48.3,36.1 50.9,36.1 50.9,36.1 51.8,31 51.8,30.8 51.9,30.6 51.9,30.4 52,30.3 52,30.1 52.1,29.9 
							52.2,29.7 52.4,29.6 52.5,29.5 52.7,29.3 52.9,29.2 53.1,29.1 53.3,29 53.6,29 53.9,28.9 54.3,28.9 54.3,28.9 54.3,28.9 
							54.4,28.9 54.4,28.9 54.5,28.9 54.5,28.9 54.5,28.9 54.5,28.9 54.6,28.9 54.6,28.8 54.6,28.6 54.7,28.4 54.7,28.2 54.8,27.9 
							54.9,27.7 						"/>
						<path class="st9" d="M47.6,33.7l-0.3,0.1L47,33.9L46.8,34L46.6,34l-0.2,0l-0.2,0l-0.2,0l-0.2,0h-0.2l-0.2,0l-0.2,0l-0.2,0
							l-0.2,0l-0.2,0L44,34l-0.2-0.1l-0.2-0.1l-0.2-0.1l-0.2-0.1l-0.1-0.1l-0.1-0.1l-0.1-0.2l-0.1-0.2l-0.1-0.2l-0.1-0.2l-0.1-0.2
							l0-0.2l0-0.2l0-0.2l0-0.1h5.8l0-0.5l0.1-0.8l0.1-0.7l0-0.6l-0.1-0.5l-0.1-0.5l-0.2-0.4L48,27.6l-0.3-0.3L47.5,27l-0.3-0.2
							l-0.3-0.2l-0.4-0.1l-0.4-0.1l-0.4-0.1l-0.4,0l-0.3,0l-0.7,0l-0.6,0.1L43,26.6l-0.5,0.2L42,27.1l-0.4,0.3l-0.3,0.3L41,28.1
							l-0.2,0.4l-0.2,0.4l-0.2,0.4l-0.1,0.4L40.1,30l-0.1,0.3L40,30.7l0,0.3l0,0.7l0,0.7l0.1,0.6l0.2,0.5l0.2,0.5l0.3,0.4l0.3,0.4
							l0.4,0.3l0.4,0.3l0.4,0.2l0.4,0.2l0.4,0.1l0.5,0.1l0.4,0.1l0.4,0l0.4,0h0.3l0.3,0h0.2l0.2,0l0.2,0l0.2,0l0.2,0l0.2,0l0.2,0
							l0.1,0l0.1,0l0.1,0l0.1-0.1l0.1-0.1l0.1-0.1l0.1-0.1l0.4-2.2l-0.3,0.2L47.6,33.7z M42.9,30.1l0-0.2l0.1-0.2l0.1-0.2l0.1-0.2
							l0.1-0.2l0.1-0.1l0.1-0.1l0.1-0.1l0.1-0.1l0.1-0.1l0.1-0.1l0.2-0.1l0.2-0.1l0.2,0l0.2,0l0.2,0l0.2,0l0.2,0l0.1,0l0.1,0.1
							l0.1,0.1l0.1,0.1l0.1,0.1l0.1,0.1l0.1,0.1L46,29l0.1,0.2l0.1,0.2l0,0.2l0,0.2l0,0.2l0,0.2h-3.3l0,0l0,0L42.9,30.1z"/>
					</g>
				</g>
			</g>
		</g>
	</g>
	<g>
		<path class="st0" d="M223.4,56.2c0,1.7-1.4,3.2-3.2,3.2h-88.7c-1.7,0-3.2-1.4-3.2-3.2V3.2c0-1.8,1.4-3.2,3.2-3.2h88.7
			c1.8,0,3.2,1.4,3.2,3.2V56.2z"/>
		<g>
			<g>
				<polygon class="st3" points="171.5,40.1 166.1,40.1 169.5,19.4 174.9,19.4 				"/>
				<path class="st3" d="M161.6,19.4l-5.1,14.2l-0.6-3.1v0l-1.8-9.3c0,0-0.2-1.9-2.6-1.9H143l-0.1,0.4c0,0,2.6,0.5,5.6,2.4l4.7,18
					h5.6l8.6-20.7H161.6z"/>
				<path class="st3" d="M204,40.1h4.9l-4.3-20.7h-4.3c-2,0-2.5,1.5-2.5,1.5l-8,19.1h5.6l1.1-3.1h6.8L204,40.1z M198,32.7l2.8-7.7
					l1.6,7.7H198z"/>
				<path class="st3" d="M190.2,24.3l0.8-4.4c0,0-2.4-0.9-4.8-0.9c-2.7,0-9,1.2-9,6.8c0,5.3,7.5,5.4,7.5,8.2c0,2.8-6.7,2.3-8.9,0.5
					l-0.8,4.6c0,0,2.4,1.2,6.1,1.2c3.7,0,9.2-1.9,9.2-7.1c0-5.4-7.5-5.9-7.5-8.2C182.6,22.8,187.9,23.1,190.2,24.3z"/>
			</g>
			<path class="st10" d="M155.9,30.5l-1.8-9.3c0,0-0.2-1.9-2.6-1.9H143l-0.1,0.4c0,0,4.1,0.8,8,4C154.6,26.8,155.9,30.5,155.9,30.5z
				"/>
		</g>
	</g>
	<g>
		<path class="st3" d="M350.4,56c0,1.7-1.4,3.1-3.1,3.1h-88.1c-1.7,0-3.1-1.4-3.1-3.1V3.2c0-1.7,1.4-3.1,3.1-3.1h88.1
			c1.7,0,3.1,1.4,3.1,3.1V56z"/>
		<g>
			<polygon class="st11" points="316.8,50.2 317.9,50.1 319,50.1 320,49.9 321,49.8 322,49.5 323,49.2 323.9,48.9 324.9,48.5 
				325.8,48.1 326.7,47.7 327.5,47.2 328.4,46.6 329.2,46.1 330,45.5 330.7,44.8 331.4,44.1 332.1,43.4 332.7,42.7 333.4,41.9 
				333.9,41.1 334.5,40.2 335,39.4 335.4,38.5 335.8,37.6 336.2,36.6 336.5,35.7 336.8,34.7 337,33.7 337.2,32.7 337.3,31.7 
				337.4,30.6 337.5,29.6 337.4,28.5 337.3,27.5 337.2,26.4 337,25.4 336.8,24.4 336.5,23.5 336.2,22.5 335.8,21.6 335.4,20.7 
				335,19.8 334.5,18.9 333.9,18.1 333.4,17.3 332.7,16.5 332.1,15.8 331.4,15.1 330.7,14.4 330,13.7 329.2,13.1 328.4,12.5 
				327.5,12 326.7,11.5 325.8,11.1 324.9,10.6 323.9,10.3 323,10 322,9.7 321,9.5 320,9.3 319,9.1 317.9,9.1 316.8,9 315.8,9.1 
				314.7,9.1 313.7,9.3 312.7,9.5 311.7,9.7 310.7,10 309.8,10.3 308.8,10.6 307.9,11.1 307,11.5 306.2,12 305.3,12.5 304.5,13.1 
				303.8,13.7 303,14.4 302.3,15.1 301.6,15.8 301,16.5 300.4,17.3 299.8,18.1 299.3,18.9 298.8,19.8 298.3,20.7 297.9,21.6 
				297.5,22.5 297.2,23.5 296.9,24.4 296.7,25.4 296.5,26.4 296.4,27.5 296.3,28.5 296.3,29.6 296.3,30.6 296.4,31.7 296.5,32.7 
				296.7,33.7 296.9,34.7 297.2,35.7 297.5,36.6 297.9,37.6 298.3,38.5 298.8,39.4 299.3,40.2 299.8,41.1 300.4,41.9 301,42.7 
				301.6,43.4 302.3,44.1 303,44.8 303.8,45.5 304.5,46.1 305.3,46.6 306.2,47.2 307,47.7 307.9,48.1 308.8,48.5 309.8,48.9 
				310.7,49.2 311.7,49.5 312.7,49.8 313.7,49.9 314.7,50.1 315.8,50.1 			"/>
			<polygon class="st12" points="289.6,50.2 290.6,50.1 291.7,50.1 292.7,49.9 293.7,49.8 294.7,49.5 295.7,49.2 296.7,48.9 
				297.6,48.5 298.5,48.1 299.4,47.7 300.2,47.2 301.1,46.6 301.9,46.1 302.7,45.5 303.4,44.8 304.1,44.1 304.8,43.4 305.4,42.7 
				306.1,41.9 306.6,41.1 307.2,40.2 307.7,39.4 308.1,38.5 308.5,37.6 308.9,36.6 309.2,35.7 309.5,34.7 309.7,33.7 309.9,32.7 
				310,31.7 310.1,30.6 310.1,29.6 310.1,28.5 310,27.5 309.9,26.4 309.7,25.4 309.5,24.4 309.2,23.5 308.9,22.5 308.5,21.6 
				308.1,20.7 307.7,19.8 307.2,18.9 306.6,18.1 306.1,17.3 305.4,16.5 304.8,15.8 304.1,15.1 303.4,14.4 302.7,13.7 301.9,13.1 
				301.1,12.5 300.2,12 299.4,11.5 298.5,11.1 297.6,10.6 296.7,10.3 295.7,10 294.7,9.7 293.7,9.5 292.7,9.3 291.7,9.1 290.6,9.1 
				289.6,9 288.5,9.1 287.5,9.1 286.4,9.3 285.4,9.5 284.4,9.7 283.4,10 282.5,10.3 281.5,10.6 280.6,11.1 279.7,11.5 278.9,12 
				278.1,12.5 277.2,13.1 276.5,13.7 275.7,14.4 275,15.1 274.3,15.8 273.7,16.5 273.1,17.3 272.5,18.1 271.9,18.9 271.5,19.8 
				271,20.7 270.6,21.6 270.2,22.5 269.9,23.5 269.6,24.4 269.4,25.4 269.2,26.4 269.1,27.5 269,28.5 269,29.6 269,30.6 269.1,31.7 
				269.2,32.7 269.4,33.7 269.6,34.7 269.9,35.7 270.2,36.6 270.6,37.6 271,38.5 271.5,39.4 271.9,40.2 272.5,41.1 273.1,41.9 
				273.7,42.7 274.3,43.4 275,44.1 275.7,44.8 276.5,45.5 277.2,46.1 278.1,46.6 278.9,47.2 279.7,47.7 280.6,48.1 281.5,48.5 
				282.5,48.9 283.4,49.2 284.4,49.5 285.4,49.8 286.4,49.9 287.5,50.1 288.5,50.1 			"/>
			<polygon class="st11" points="300.7,16.9 311.1,16.9 311.1,15.7 301.7,15.7 			"/>
			<polygon class="st11" points="299,19.3 311.1,19.3 311.1,18.2 299.8,18.2 			"/>
			<polygon class="st11" points="297.8,21.8 311.1,21.8 311.1,20.6 298.4,20.6 			"/>
			<polygon class="st11" points="297,24.2 311.1,24.2 311.1,23.1 297.4,23.1 			"/>
			<polygon class="st11" points="296.5,26.6 311.1,26.6 311.1,25.5 296.7,25.5 			"/>
			<polygon class="st11" points="296.4,31.4 311.1,31.4 311.1,30.2 296.3,30.2 			"/>
			<polygon class="st11" points="296.7,33.9 311.1,33.9 311.1,32.8 296.5,32.8 			"/>
			<polygon class="st11" points="297.4,36 311.1,36 311.1,34.9 297.1,34.9 			"/>
			<polygon class="st11" points="298.5,38.6 311.1,38.6 311.1,37.4 297.9,37.4 			"/>
			<polygon class="st11" points="299.9,41.2 311.1,41.2 311.1,40 299.2,40 			"/>
			<polygon class="st11" points="301.8,43.6 311,43.6 311,42.5 300.8,42.5 			"/>
			<g>
				<g>
					<polygon class="st11" points="334.1,42.2 334.1,42 334.2,41.8 334.4,41.7 334.5,41.6 334.7,41.5 334.9,41.4 335.1,41.4 
						335.3,41.4 335.4,41.5 335.6,41.6 335.8,41.7 335.9,41.8 336,42 336,42.2 335.8,42.2 335.8,42.1 335.7,41.9 335.6,41.8 
						335.5,41.7 335.4,41.6 335.2,41.6 335.1,41.6 334.9,41.6 334.7,41.6 334.6,41.7 334.5,41.8 334.4,41.9 334.3,42.1 334.3,42.2 
											"/>
					<polygon class="st11" points="334.7,42.2 334.7,42 335.1,42 335.2,42 335.2,42 335.3,42 335.4,42 335.4,42 335.4,42.1 
						335.5,42.1 335.5,42.2 335.3,42.2 335.3,42.2 335.3,42.2 335.3,42.1 335.3,42.1 335.2,42.1 335.2,42.1 335.2,42.1 335.1,42.1 
						335.1,42.1 334.9,42.1 334.9,42.2 					"/>
					<polygon class="st11" points="334.1,42.4 334.1,42.2 334.1,42.2 334.3,42.2 334.3,42.2 334.2,42.4 					"/>
					<polygon class="st11" points="334.7,42.4 334.7,42.2 334.9,42.2 334.9,42.3 335.1,42.3 335.1,42.3 335.2,42.3 335.2,42.3 
						335.2,42.3 335.3,42.3 335.3,42.3 335.3,42.2 335.3,42.2 335.5,42.2 335.5,42.2 335.5,42.3 335.5,42.3 335.4,42.3 335.4,42.4 
											"/>
					<polygon class="st11" points="335.9,42.4 335.8,42.2 335.8,42.2 336,42.2 336,42.2 336.1,42.4 					"/>
					<polygon class="st11" points="334.1,42.4 334,42.4 334.1,42.6 334.1,42.8 334.2,43 334.4,43.1 334.5,43.2 334.7,43.3 
						334.9,43.4 335.1,43.4 335.3,43.4 335.4,43.3 335.6,43.2 335.8,43.1 335.9,43 336,42.8 336,42.6 336.1,42.4 336.1,42.4 
						335.9,42.4 335.9,42.4 335.8,42.6 335.8,42.7 335.7,42.9 335.6,43 335.5,43.1 335.4,43.2 335.2,43.2 335.1,43.2 334.9,43.2 
						334.7,43.2 334.6,43.1 334.5,43 334.4,42.9 334.3,42.7 334.3,42.6 334.2,42.4 334.2,42.4 					"/>
					<polygon class="st11" points="334.7,42.4 334.7,42.8 334.9,42.8 334.9,42.4 335.1,42.4 335.3,42.8 335.4,42.8 335.2,42.4 
						335.2,42.4 335.3,42.4 335.4,42.4 335.4,42.4 335.4,42.4 					"/>
				</g>
			</g>
			<polygon class="st9" points="334,35.5 334.8,35.5 334.8,35.6 334.5,35.6 334.5,36.3 334.4,36.3 334.4,35.6 334,35.6 			"/>
			<g>
				<g>
					<polyline class="st13" points="334,35.5 334.8,35.5 334.8,35.6 334.5,35.6 334.5,36.3 334.4,36.3 334.4,35.6 334,35.6 
						334,35.5 					"/>
				</g>
			</g>
			<polygon class="st9" points="334.9,35.5 335.2,35.5 335.5,36.1 335.5,36.1 335.7,35.5 336,35.5 336,36.3 335.8,36.3 335.8,35.7 
				335.8,35.7 335.5,36.3 335.4,36.3 335.1,35.7 335.1,35.7 335.1,36.3 334.9,36.3 			"/>
			<g>
				<g>
					<polyline class="st13" points="334.9,35.5 335.2,35.5 335.5,36.1 335.5,36.1 335.7,35.5 336,35.5 336,36.3 335.8,36.3 
						335.8,35.7 335.8,35.7 335.5,36.3 335.4,36.3 335.1,35.7 335.1,35.7 335.1,36.3 334.9,36.3 334.9,35.5 					"/>
				</g>
			</g>
			<g>
				<g>
					<polygon class="st8" points="309.5,29.4 309.6,29.3 309.7,29.2 309.7,29.1 309.8,29 310,28.9 310.1,28.9 310.2,28.8 
						310.4,28.8 310.6,28.7 310.8,28.7 311.1,28.7 311.3,28.7 311.5,28.6 311.7,28.6 311.9,28.7 312.1,28.7 312.2,28.7 312.4,28.7 
						312.5,28.7 312.6,28.7 312.8,28.8 312.9,28.8 313,28.8 313.1,28.8 313.3,28.8 313.4,28.8 313.9,26.6 313.8,26.6 313.7,26.6 
						313.6,26.6 313.5,26.6 313.4,26.6 313.3,26.6 313.2,26.5 313,26.5 312.8,26.5 312.7,26.5 312.4,26.5 312.2,26.5 311.9,26.4 
						311.6,26.4 311.3,26.4 311,26.4 310.7,26.4 310.4,26.4 310.1,26.5 309.9,26.5 309.6,26.5 309.4,26.5 309.2,26.6 308.9,26.6 
						308.7,26.7 308.6,26.7 308.4,26.8 308.2,26.9 308,27 307.9,27 307.7,27.1 307.6,27.2 307.5,27.3 307.4,27.4 307.3,27.5 
						307.2,27.7 307.1,27.8 307,27.9 306.9,28.1 306.8,28.2 306.8,28.4 306.7,28.5 306.7,28.7 306.6,28.9 306.6,29 306.5,29.2 
						306.5,29.4 306.5,29.6 306.5,29.9 306.5,30.2 306.5,30.5 306.6,30.7 306.7,31 306.7,31.2 306.9,31.4 307,31.5 307.1,31.7 
						307.3,31.8 307.5,32 307.6,32.1 307.8,32.2 308,32.3 308.2,32.4 308.4,32.5 308.6,32.5 308.8,32.6 309,32.7 309.1,32.8 
						309.3,32.8 309.5,32.9 309.6,33 309.8,33 309.9,33.1 310,33.2 310.1,33.3 310.2,33.4 310.2,33.5 310.3,33.6 310.3,33.8 
						310.3,33.9 310.2,34.1 310.2,34.2 310.1,34.4 310,34.5 309.8,34.6 309.7,34.8 309.5,34.8 309.2,34.9 308.9,34.9 308.6,34.9 
						308.3,34.9 308,34.9 307.8,34.8 307.5,34.8 307.3,34.8 307,34.8 306.8,34.7 306.6,34.7 306.4,34.6 306.2,34.6 306,34.5 
						305.9,34.5 305.8,34.5 305.7,34.5 305.2,36.6 305.4,36.6 305.6,36.7 305.7,36.8 305.9,36.8 306.1,36.8 306.3,36.9 306.4,36.9 
						306.6,36.9 306.9,37 307.1,37 307.4,37 307.7,37 308,37 308.3,37 308.7,37 309.1,37 309.4,37 309.7,37 310.1,37 310.4,36.9 
						310.7,36.8 311,36.7 311.4,36.6 311.7,36.5 312,36.3 312.3,36.1 312.5,35.8 312.7,35.6 312.9,35.2 313.1,34.9 313.2,34.5 
						313.3,34 313.3,33.4 313.3,32.9 313.2,32.5 313,32.1 312.8,31.8 312.6,31.5 312.3,31.3 312,31.2 311.7,31 311.4,30.9 
						311.1,30.8 310.8,30.7 310.5,30.6 310.2,30.5 310,30.4 309.8,30.2 309.7,30.1 309.6,29.9 309.6,29.8 309.5,29.7 309.5,29.6 
											"/>
					<polygon class="st8" points="318.6,34.8 318.5,34.8 318.4,34.9 318.2,34.9 318,34.9 317.9,34.9 317.6,34.9 317.5,34.9 
						317.4,34.9 317.3,34.9 317.2,34.9 317.1,34.9 317,34.9 316.9,34.8 316.8,34.8 316.8,34.8 316.7,34.7 316.7,34.6 316.6,34.6 
						316.6,34.5 316.6,34.4 316.6,34.3 316.6,34.2 317.5,28.8 319.2,28.8 319.6,26.7 317.9,26.7 318.3,24.3 315.6,24.3 313.8,34.9 
						313.8,35.1 313.8,35.3 313.8,35.6 313.8,35.8 313.8,35.9 313.8,36.1 313.9,36.3 314,36.4 314.1,36.5 314.3,36.7 314.5,36.8 
						314.7,36.8 315,36.9 315.3,37 315.6,37 316,37 316.7,37 316.9,37 317.1,37 317.2,37 317.3,37 317.4,36.9 317.6,36.9 
						317.7,36.9 317.7,36.9 317.8,36.8 317.9,36.8 318,36.8 318.1,36.8 318.2,36.7 318.2,36.7 318.3,36.7 318.4,36.6 318.6,34.8 
						318.6,34.8 					"/>
					<path class="st8" d="M304.5,34.4l-0.3,0.1l-0.3,0.1l-0.3,0.1l-0.3,0.1l-0.3,0l-0.3,0l-0.3,0l-0.3,0h-0.2l-0.3,0l-0.2,0l-0.2,0
						l-0.2,0l-0.2,0l-0.2,0l-0.2-0.1l-0.2-0.1l-0.2-0.1l-0.2-0.1l-0.2-0.1l-0.1-0.2l-0.1-0.2l-0.1-0.2l-0.1-0.2l-0.1-0.2l-0.1-0.2
						l0-0.2l0-0.2l0-0.2l0-0.1h6.3l0.1-0.6l0.1-0.4l0.1-0.4l0-0.4l0-0.4v-0.3l0-0.3l0-0.3l-0.1-0.3l-0.1-0.3l-0.1-0.3l-0.1-0.2
						l-0.1-0.2l-0.1-0.2l-0.1-0.2l-0.1-0.2l-0.1-0.2l-0.2-0.1l-0.2-0.1l-0.2-0.1L304,27l-0.2-0.1l-0.2-0.1l-0.2-0.1l-0.2-0.1
						l-0.2-0.1l-0.2,0l-0.2,0l-0.2,0l-0.2,0l-0.2,0l-0.2,0h-0.2l-0.4,0l-0.4,0l-0.4,0l-0.3,0.1l-0.3,0.1l-0.3,0.1l-0.3,0.1L299,27
						l-0.3,0.1l-0.2,0.1l-0.2,0.2l-0.2,0.2l-0.2,0.2l-0.2,0.2l-0.2,0.2l-0.2,0.2l-0.1,0.2l-0.1,0.2L297,29l-0.1,0.2l-0.1,0.2
						l-0.1,0.2l-0.1,0.2l-0.1,0.2l-0.1,0.2l-0.1,0.2l0,0.2l0,0.2l0,0.2l0,0.2l0,0.2l0,0.1l0,0.4l0,0.4v0.4l0,0.4l0,0.3l0.1,0.3
						l0.1,0.3l0.1,0.3l0.1,0.3l0.1,0.2l0.1,0.2l0.1,0.2l0.2,0.2l0.2,0.2l0.2,0.2l0.2,0.2l0.2,0.1l0.2,0.1l0.2,0.1l0.2,0.1l0.2,0.1
						l0.2,0.1l0.2,0.1l0.2,0.1l0.2,0.1l0.2,0.1l0.2,0l0.2,0l0.2,0l0.2,0l0.2,0h0.2h0.3l0.3,0h0.3l0.2,0l0.2,0l0.2,0l0.2,0l0.2,0
						l0.2,0l0.2,0l0.1,0l0.1-0.1l0.1-0.1l0.1-0.1l0.2-0.1l0.2-0.1l0.4-2.4l-0.3,0.2L304.5,34.4z M299.5,30.3l0.1-0.2l0.1-0.2
						l0.1-0.2l0.1-0.2l0.1-0.2l0.1-0.1l0.1-0.1l0.1-0.1l0.1-0.1l0.1-0.1l0.2-0.1l0.2-0.1l0.2,0l0.2,0h0.2l0.2,0l0.2,0l0.2,0l0.2,0.1
						l0.1,0.1l0.1,0.1l0.1,0.1l0.1,0.1l0.1,0.1l0.1,0.1l0.1,0.2l0.1,0.2l0,0.2l0,0.2v0.2l0,0.3h-3.5l0-0.2L299.5,30.3z"/>
					<path class="st8" d="M296.4,29.4l0-0.4l-0.1-0.3l-0.1-0.3l-0.1-0.3l-0.2-0.3l-0.2-0.2l-0.3-0.2l-0.3-0.2l-0.3-0.2l-0.3-0.1
						l-0.3-0.1l-0.3-0.1l-0.3-0.1l-0.3,0l-0.3,0l-0.3,0l-0.3,0h-0.3h-0.3h-0.3l-0.3,0l-0.3,0l-0.3,0l-0.3,0l-0.3,0l-0.2,0l-0.2,0
						l-0.2,0.1l-0.2,0.1l-0.2,0.1l-0.2,0.1l-0.7,2.3l0.1-0.1l0.1-0.1l0.2-0.1l0.2-0.1L289,29l0.3,0l0.3,0l0.3,0l0.3,0l0.3,0l0.3,0
						l0.3,0l0.3,0l0.3,0l0.3,0l0.3,0l0.1,0l0.1,0l0.1,0l0.1,0l0.1,0l0.1,0.1l0.1,0.1l0.1,0.1l0.1,0.1l0.1,0.1l0.1,0.1l0.1,0.1l0,0.1
						l0,0.1l0,0.1l0,0.1V30l0,0.2l0,0.2l0,0.1h0h0h0l-0.1,0h-0.1l-0.1,0H293l-0.1,0h-0.1h-0.1l-0.1,0h-0.1l-0.1,0h-0.1h-0.1H292
						h-0.1l-0.1,0l-0.1,0l-0.1,0l-0.2,0l-0.2,0l-0.2,0l-0.2,0l-0.2,0l-0.1,0l-0.1,0l-0.1,0l-0.1,0l-0.1,0l0,0h0l-0.3,0.1l-0.3,0.1
						l-0.3,0.1l-0.3,0.1l-0.3,0.2l-0.3,0.2l-0.3,0.2l-0.3,0.2l-0.2,0.3l-0.2,0.3l-0.2,0.3l-0.2,0.3l-0.1,0.3l-0.1,0.3l-0.1,0.4
						l0,0.4l0,0.2l0,0.2l0,0.2l0,0.2l0.1,0.2l0.1,0.2l0.1,0.2L287,36l0.1,0.2l0.2,0.2l0.2,0.2l0.2,0.2l0.2,0.1l0.3,0.1l0.3,0.1
						l0.3,0.1l0.3,0l0.3,0l0.3,0l0.3,0l0.3,0l0.3-0.1l0.3-0.1l0.3-0.1l0.3-0.1l0.3-0.1l0.2-0.1l0.2-0.1l0.2-0.1l0.2-0.1l0.2-0.1
						l0.1-0.1l0,0l0,0.1l0,0.1l0,0.1l0,0.2l0,0.2l0,0.2l0,0.2h2.4l0.4-2.2l1-5.1L296.4,29.4z M293,32.5l0,0.1l0,0.1l0,0.2l0,0.2
						l0,0.2l0,0.2l0,0.1l0,0.1l0,0.1l-0.1,0.1l-0.1,0.1l-0.1,0.1l-0.1,0.1l-0.1,0.1l-0.1,0.1l-0.1,0.1l-0.2,0.1l-0.2,0.1l-0.2,0.1
						l-0.2,0.1l-0.2,0l-0.3,0l-0.3,0l-0.2,0l-0.2,0l-0.2-0.1l-0.1-0.1l-0.1-0.1l-0.1-0.2l0-0.3l0-0.3l0-0.2l0.1-0.2l0.1-0.1l0.1-0.1
						l0.1-0.1l0.1-0.1l0.1-0.1l0.1-0.1l0.1-0.1l0.1-0.1l0.1-0.1l0.1,0l0.1,0l0.1,0l0.1,0l0.1,0l0.1,0l0.1,0l0.1,0l0.1,0l0.2,0l0.2,0
						l0.2,0l0.2,0h0.1h0.1l0.1,0l0.1,0l0.1,0l0.1,0l0,0l0,0.1L293,32.5z"/>
					<polygon class="st8" points="282.7,24.3 279.6,31.9 279.1,24.3 274.5,24.3 272.3,37 274.9,37 276.6,27.5 276.6,27.5 
						276.7,27.5 276.7,27.5 276.7,27.5 276.7,27.5 276.7,28 276.8,29.1 276.9,30.6 277,32.4 277.1,34.1 277.2,35.6 277.2,36.6 
						277.3,37 280.2,37 284.2,27.5 284.3,27.5 282.6,37 285.2,37 287.5,24.3 					"/>
					<polygon class="st8" points="325.5,29.2 325.5,29.3 325.6,29.3 325.7,29.3 325.7,29.3 325.7,29.3 325.8,29.3 325.8,29.3 
						325.8,29.2 325.8,29.1 325.9,29 325.9,28.7 326,28.5 326,28.2 326.1,27.9 326.2,27.7 326.3,27.5 326.4,27.3 326.5,27.1 
						326.6,27 326.7,26.8 326.7,26.7 326.8,26.6 326.8,26.6 326.8,26.6 326.7,26.6 326.7,26.6 326.6,26.6 326.6,26.6 326.5,26.5 
						326.4,26.5 326.3,26.5 326,26.6 325.8,26.6 325.5,26.6 325.3,26.7 325.1,26.8 324.9,26.9 324.7,27 324.5,27.1 324.4,27.2 
						324.2,27.4 324.1,27.5 323.9,27.7 323.8,27.8 323.6,28 323.5,28.2 323.3,28.4 323.7,26.7 320.9,26.6 319.1,37 321.9,37 
						322.8,31.5 322.8,31.3 322.9,31.1 322.9,30.9 323,30.7 323.1,30.5 323.2,30.3 323.3,30.2 323.4,30 323.6,29.8 323.7,29.7 
						324,29.6 324.2,29.5 324.5,29.4 324.8,29.3 325.1,29.3 325.5,29.2 					"/>
					<path class="st8" d="M336.1,31.2l0-0.3l0-0.3l0-0.3l-0.1-0.3l-0.1-0.2l-0.1-0.2l-0.1-0.2l-0.1-0.2l-0.1-0.2l-0.1-0.2l-0.1-0.2
						l-0.1-0.2l-0.1-0.2l-0.2-0.2l-0.2-0.2l-0.2-0.2l-0.2-0.1l-0.2-0.1l-0.2-0.1l-0.2-0.1l-0.2-0.1l-0.2-0.1l-0.2-0.1l-0.2-0.1
						l-0.3-0.1l-0.3-0.1l-0.3,0l-0.3,0l-0.3,0l-0.3,0l-0.3,0l-0.3,0l-0.3,0l-0.3,0l-0.3,0.1l-0.3,0.1l-0.3,0.1l-0.2,0.1l-0.2,0.1
						l-0.2,0.1l-0.2,0.1l-0.2,0.1l-0.2,0.1l-0.2,0.1l-0.2,0.2l-0.2,0.2l-0.2,0.2l-0.2,0.2l-0.2,0.2l-0.1,0.2l-0.1,0.2l-0.1,0.2
						l-0.1,0.2l-0.1,0.3l-0.1,0.3l-0.1,0.3l-0.1,0.3l-0.1,0.3l-0.1,0.3l0,0.3l0,0.3l0,0.3l0,0.3l0,0.3l0,0.3l0,0.3l0,0.3l0.1,0.3
						l0.1,0.3l0.1,0.2l0.1,0.2l0.1,0.2l0.1,0.2l0.1,0.2l0.1,0.2l0.1,0.2l0.2,0.2l0.2,0.2L327,36l0.2,0.1l0.2,0.1l0.2,0.1l0.2,0.1
						l0.2,0.1l0.2,0.1l0.2,0.1l0.2,0.1l0.2,0.1l0.3,0.1l0.3,0l0.3,0l0.3,0l0.3,0l0.3,0l0.3,0l0.3,0l0.3,0l0.3,0l0.3,0l0.3-0.1
						l0.3-0.1l0.2-0.1l0.2-0.1l0.2-0.1l0.2-0.1l0.2-0.1l0.2-0.1l0.2-0.1l0.2-0.2l0.2-0.2l0.2-0.2l0.2-0.2l0.2-0.2l0.2-0.2l0.1-0.2
						l0.1-0.2l0.1-0.2l0.1-0.3l0.1-0.3l0.1-0.3l0.1-0.3l0.1-0.3l0.1-0.3l0-0.3l0-0.3l0-0.3l0-0.3L336.1,31.2z M332.8,31l0,0.3l0,0.3
						l-0.1,0.4l-0.1,0.3l-0.1,0.3l-0.1,0.3l-0.1,0.3l-0.1,0.2l-0.1,0.2l-0.1,0.2l-0.2,0.2l-0.2,0.1l-0.2,0.1l-0.2,0.1l-0.2,0.1
						l-0.2,0l-0.2,0l-0.2,0l-0.2,0l-0.2,0l-0.2-0.1l-0.2-0.1l-0.2-0.1l-0.1-0.1l-0.1-0.1l-0.1-0.2l-0.1-0.2l-0.1-0.2l-0.1-0.2l0-0.3
						l0-0.3v-0.3l0-0.4l0-0.4l0-0.2l0-0.2l0.1-0.2l0.1-0.2l0.1-0.2l0.1-0.2l0.1-0.2l0.1-0.2l0.1-0.2l0.2-0.2l0.2-0.1l0.2-0.1
						l0.2-0.1l0.2-0.1l0.3,0l0.3,0h0.2l0.2,0l0.2,0.1L332,29l0.2,0.1l0.1,0.1l0.1,0.1l0.1,0.2l0.1,0.2l0.1,0.2l0.1,0.2l0,0.2l0,0.3
						V31z"/>
				</g>
				<g>
					<g>
						<polygon class="st9" points="308.5,28.4 308.6,28.3 308.7,28.2 308.7,28.1 308.8,28 309,27.9 309.1,27.9 309.2,27.8 
							309.4,27.8 309.6,27.7 309.8,27.7 310.1,27.7 310.3,27.7 310.5,27.6 310.7,27.6 310.9,27.7 311.1,27.7 311.2,27.7 311.4,27.7 
							311.5,27.7 311.6,27.7 311.8,27.8 311.9,27.8 312,27.8 312.1,27.8 312.3,27.8 312.4,27.8 312.9,25.6 312.8,25.6 312.7,25.6 
							312.6,25.6 312.5,25.6 312.4,25.6 312.3,25.6 312.2,25.5 312,25.5 311.8,25.5 311.7,25.5 311.4,25.5 311.2,25.5 310.9,25.4 
							310.6,25.4 310.3,25.4 310,25.4 309.7,25.4 309.4,25.4 309.1,25.5 308.9,25.5 308.6,25.5 308.4,25.5 308.2,25.6 307.9,25.6 
							307.7,25.7 307.6,25.7 307.4,25.8 307.2,25.9 307,26 306.9,26 306.7,26.1 306.6,26.2 306.5,26.3 306.4,26.4 306.3,26.5 
							306.2,26.7 306.1,26.8 306,26.9 305.9,27.1 305.8,27.2 305.8,27.4 305.7,27.5 305.7,27.7 305.6,27.9 305.6,28 305.5,28.2 
							305.5,28.4 305.5,28.6 305.5,28.9 305.5,29.2 305.5,29.5 305.6,29.7 305.7,30 305.7,30.2 305.9,30.4 306,30.5 306.1,30.7 
							306.3,30.8 306.5,31 306.6,31.1 306.8,31.2 307,31.3 307.2,31.4 307.4,31.5 307.6,31.5 307.8,31.6 308,31.7 308.1,31.8 
							308.3,31.8 308.5,31.9 308.6,32 308.8,32 308.9,32.1 309,32.2 309.1,32.3 309.2,32.4 309.2,32.5 309.3,32.6 309.3,32.8 
							309.3,32.9 309.2,33.1 309.2,33.2 309.1,33.4 309,33.5 308.8,33.6 308.7,33.8 308.5,33.8 308.2,33.9 307.9,33.9 307.6,33.9 
							307.3,33.9 307,33.9 306.8,33.8 306.5,33.8 306.3,33.8 306,33.8 305.8,33.7 305.6,33.7 305.4,33.6 305.2,33.6 305,33.5 
							304.9,33.5 304.8,33.5 304.7,33.5 304.2,35.6 304.4,35.6 304.6,35.7 304.7,35.8 304.9,35.8 305.1,35.8 305.3,35.9 305.4,35.9 
							305.6,35.9 305.9,36 306.1,36 306.4,36 306.7,36 307,36 307.3,36 307.7,36 308.1,36 308.4,36 308.7,36 309.1,36 309.4,35.9 
							309.7,35.8 310,35.7 310.4,35.6 310.7,35.5 311,35.3 311.3,35.1 311.5,34.8 311.7,34.6 311.9,34.2 312.1,33.9 312.2,33.5 
							312.3,33 312.3,32.4 312.3,31.9 312.2,31.5 312,31.1 311.8,30.8 311.6,30.5 311.3,30.3 311,30.2 310.7,30 310.4,29.9 
							310.1,29.8 309.8,29.7 309.5,29.6 309.2,29.5 309,29.4 308.8,29.2 308.7,29.1 308.6,28.9 308.6,28.8 308.5,28.7 308.5,28.6 
													"/>
						<polygon class="st9" points="317.6,33.8 317.5,33.8 317.4,33.9 317.2,33.9 317,33.9 316.9,33.9 316.6,33.9 316.5,33.9 
							316.4,33.9 316.3,33.9 316.2,33.9 316.1,33.9 316,33.9 315.9,33.8 315.8,33.8 315.8,33.8 315.7,33.7 315.7,33.6 315.6,33.6 
							315.6,33.5 315.6,33.4 315.6,33.3 315.6,33.2 316.5,27.8 318.2,27.8 318.6,25.7 316.9,25.7 317.3,23.3 314.6,23.3 312.8,33.9 
							312.8,34.1 312.8,34.3 312.8,34.6 312.8,34.8 312.8,34.9 312.8,35.1 312.9,35.3 313,35.4 313.1,35.5 313.3,35.7 313.5,35.8 
							313.7,35.8 314,35.9 314.3,36 314.6,36 315,36 315.7,36 315.9,36 316.1,36 316.2,36 316.3,36 316.4,35.9 316.6,35.9 
							316.7,35.9 316.7,35.9 316.8,35.8 316.9,35.8 317,35.8 317.1,35.8 317.2,35.7 317.2,35.7 317.3,35.7 317.4,35.6 317.6,33.8 
							317.6,33.8 						"/>
						<path class="st9" d="M303.5,33.4l-0.3,0.1l-0.3,0.1l-0.3,0.1l-0.3,0.1l-0.3,0l-0.3,0l-0.3,0l-0.3,0h-0.2l-0.3,0l-0.2,0l-0.2,0
							l-0.2,0l-0.2,0l-0.2,0l-0.2-0.1l-0.2-0.1l-0.2-0.1l-0.2-0.1l-0.2-0.1l-0.1-0.2l-0.1-0.2l-0.1-0.2l-0.1-0.2l-0.1-0.2l-0.1-0.2
							l0-0.2l0-0.2l0-0.2l0-0.1h6.3l0.1-0.6l0.1-0.4l0.1-0.4l0-0.4l0-0.4v-0.3l0-0.3l0-0.3l-0.1-0.3l-0.1-0.3l-0.1-0.3l-0.1-0.2
							l-0.1-0.2l-0.1-0.2l-0.1-0.2l-0.1-0.2l-0.1-0.2l-0.2-0.1l-0.2-0.1l-0.2-0.1L303,26l-0.2-0.1l-0.2-0.1l-0.2-0.1l-0.2-0.1
							l-0.2-0.1l-0.2,0l-0.2,0l-0.2,0l-0.2,0l-0.2,0l-0.2,0h-0.2l-0.4,0l-0.4,0l-0.4,0l-0.3,0.1l-0.3,0.1l-0.3,0.1l-0.3,0.1L298,26
							l-0.3,0.1l-0.2,0.1l-0.2,0.2l-0.2,0.2l-0.2,0.2l-0.2,0.2l-0.2,0.2l-0.2,0.2l-0.1,0.2l-0.1,0.2L296,28l-0.1,0.2l-0.1,0.2
							l-0.1,0.2l-0.1,0.2l-0.1,0.2l-0.1,0.2l-0.1,0.2l0,0.2l0,0.2l0,0.2l0,0.2l0,0.2l0,0.1l0,0.4l0,0.4v0.4l0,0.4l0,0.3l0.1,0.3
							l0.1,0.3l0.1,0.3l0.1,0.3l0.1,0.2l0.1,0.2l0.1,0.2l0.2,0.2l0.2,0.2l0.2,0.2l0.2,0.2l0.2,0.1l0.2,0.1l0.2,0.1l0.2,0.1l0.2,0.1
							l0.2,0.1l0.2,0.1l0.2,0.1l0.2,0.1l0.2,0.1l0.2,0l0.2,0l0.2,0l0.2,0l0.2,0h0.2h0.3l0.3,0h0.3l0.2,0l0.2,0l0.2,0l0.2,0l0.2,0
							l0.2,0l0.2,0l0.1,0l0.1-0.1l0.1-0.1l0.1-0.1l0.2-0.1l0.2-0.1l0.4-2.4l-0.3,0.2L303.5,33.4z M298.5,29.3l0.1-0.2l0.1-0.2
							l0.1-0.2l0.1-0.2l0.1-0.2l0.1-0.1l0.1-0.1l0.1-0.1l0.1-0.1l0.1-0.1l0.2-0.1l0.2-0.1l0.2,0l0.2,0h0.2l0.2,0l0.2,0l0.2,0
							l0.2,0.1l0.1,0.1l0.1,0.1l0.1,0.1l0.1,0.1l0.1,0.1l0.1,0.1l0.1,0.2l0.1,0.2l0,0.2l0,0.2v0.2l0,0.3h-3.5l0-0.2L298.5,29.3z"/>
						<path class="st9" d="M295.4,28.4l0-0.4l-0.1-0.3l-0.1-0.3l-0.1-0.3l-0.2-0.3l-0.2-0.2l-0.3-0.2l-0.3-0.2l-0.3-0.2l-0.3-0.1
							l-0.3-0.1l-0.3-0.1l-0.3-0.1l-0.3,0l-0.3,0l-0.3,0l-0.3,0h-0.3h-0.3h-0.3l-0.3,0l-0.3,0l-0.3,0l-0.3,0l-0.3,0l-0.2,0l-0.2,0
							l-0.2,0.1l-0.2,0.1l-0.2,0.1l-0.2,0.1l-0.7,2.3l0.1-0.1l0.1-0.1l0.2-0.1l0.2-0.1L288,28l0.3,0l0.3,0l0.3,0l0.3,0l0.3,0l0.3,0
							l0.3,0l0.3,0l0.3,0l0.3,0l0.3,0l0.1,0l0.1,0l0.1,0l0.1,0l0.1,0l0.1,0.1l0.1,0.1l0.1,0.1l0.1,0.1l0.1,0.1l0.1,0.1l0.1,0.1
							l0,0.1l0,0.1l0,0.1l0,0.1V29l0,0.2l0,0.2l0,0.1h0h0h0l-0.1,0h-0.1l-0.1,0H292l-0.1,0h-0.1h-0.1l-0.1,0h-0.1l-0.1,0h-0.1h-0.1
							H291h-0.1l-0.1,0l-0.1,0l-0.1,0l-0.2,0l-0.2,0l-0.2,0l-0.2,0l-0.2,0l-0.1,0l-0.1,0l-0.1,0l-0.1,0l-0.1,0l0,0h0l-0.3,0.1
							l-0.3,0.1l-0.3,0.1l-0.3,0.1l-0.3,0.2l-0.3,0.2l-0.3,0.2l-0.3,0.2l-0.2,0.3l-0.2,0.3l-0.2,0.3l-0.2,0.3l-0.1,0.3l-0.1,0.3
							l-0.1,0.4l0,0.4l0,0.2l0,0.2l0,0.2l0,0.2l0.1,0.2l0.1,0.2l0.1,0.2L286,35l0.1,0.2l0.2,0.2l0.2,0.2l0.2,0.2l0.2,0.1l0.3,0.1
							l0.3,0.1l0.3,0.1l0.3,0l0.3,0l0.3,0l0.3,0l0.3,0l0.3-0.1l0.3-0.1l0.3-0.1l0.3-0.1l0.3-0.1l0.2-0.1l0.2-0.1l0.2-0.1l0.2-0.1
							l0.2-0.1l0.1-0.1l0,0l0,0.1l0,0.1l0,0.1l0,0.2l0,0.2l0,0.2l0,0.2h2.4l0.4-2.2l1-5.1L295.4,28.4z M292,31.5l0,0.1l0,0.1l0,0.2
							l0,0.2l0,0.2l0,0.2l0,0.1l0,0.1l0,0.1l-0.1,0.1l-0.1,0.1l-0.1,0.1l-0.1,0.1l-0.1,0.1l-0.1,0.1l-0.1,0.1l-0.2,0.1l-0.2,0.1
							l-0.2,0.1l-0.2,0.1l-0.2,0l-0.3,0l-0.3,0l-0.2,0l-0.2,0l-0.2-0.1l-0.1-0.1l-0.1-0.1l-0.1-0.2l0-0.3l0-0.3l0-0.2l0.1-0.2
							l0.1-0.1l0.1-0.1l0.1-0.1l0.1-0.1l0.1-0.1l0.1-0.1l0.1-0.1l0.1-0.1l0.1-0.1l0.1,0l0.1,0l0.1,0l0.1,0l0.1,0l0.1,0l0.1,0l0.1,0
							l0.1,0l0.2,0l0.2,0l0.2,0l0.2,0h0.1h0.1l0.1,0l0.1,0l0.1,0l0.1,0l0,0l0,0.1L292,31.5z"/>
						<polygon class="st9" points="281.7,23.3 278.6,30.9 278.1,23.3 273.5,23.3 271.3,36 273.9,36 275.6,26.5 275.6,26.5 
							275.7,26.5 275.7,26.5 275.7,26.5 275.7,26.5 275.7,27 275.8,28.1 275.9,29.6 276,31.4 276.1,33.1 276.2,34.6 276.2,35.6 
							276.3,36 279.2,36 283.2,26.5 283.3,26.5 281.6,36 284.2,36 286.5,23.3 						"/>
						<polygon class="st9" points="324.5,28.2 324.5,28.3 324.6,28.3 324.7,28.3 324.7,28.3 324.7,28.3 324.8,28.3 324.8,28.3 
							324.8,28.2 324.8,28.1 324.9,28 324.9,27.7 325,27.5 325,27.2 325.1,26.9 325.2,26.7 325.3,26.5 325.4,26.3 325.5,26.1 
							325.6,26 325.7,25.8 325.7,25.7 325.8,25.6 325.8,25.6 325.8,25.6 325.7,25.6 325.7,25.6 325.6,25.6 325.6,25.6 325.5,25.5 
							325.4,25.5 325.3,25.5 325,25.6 324.8,25.6 324.5,25.6 324.3,25.7 324.1,25.8 323.9,25.9 323.7,26 323.5,26.1 323.4,26.2 
							323.2,26.4 323.1,26.5 322.9,26.7 322.8,26.8 322.6,27 322.5,27.2 322.3,27.4 322.7,25.7 319.9,25.6 318.1,36 320.9,36 
							321.8,30.5 321.8,30.3 321.9,30.1 321.9,29.9 322,29.7 322.1,29.5 322.2,29.3 322.3,29.2 322.4,29 322.6,28.8 322.7,28.7 
							323,28.6 323.2,28.5 323.5,28.4 323.8,28.3 324.1,28.3 324.5,28.2 						"/>
						<path class="st9" d="M335.1,30.2l0-0.3l0-0.3l0-0.3l-0.1-0.3l-0.1-0.2l-0.1-0.2l-0.1-0.2l-0.1-0.2l-0.1-0.2l-0.1-0.2l-0.1-0.2
							l-0.1-0.2l-0.1-0.2l-0.2-0.2l-0.2-0.2l-0.2-0.2l-0.2-0.1l-0.2-0.1l-0.2-0.1l-0.2-0.1l-0.2-0.1l-0.2-0.1l-0.2-0.1l-0.2-0.1
							l-0.3-0.1l-0.3-0.1l-0.3,0l-0.3,0l-0.3,0l-0.3,0l-0.3,0l-0.3,0l-0.3,0l-0.3,0l-0.3,0.1l-0.3,0.1l-0.3,0.1l-0.2,0.1l-0.2,0.1
							l-0.2,0.1l-0.2,0.1l-0.2,0.1l-0.2,0.1l-0.2,0.1l-0.2,0.2l-0.2,0.2l-0.2,0.2l-0.2,0.2l-0.2,0.2l-0.1,0.2l-0.1,0.2l-0.1,0.2
							l-0.1,0.2l-0.1,0.3l-0.1,0.3l-0.1,0.3l-0.1,0.3l-0.1,0.3l-0.1,0.3l0,0.3l0,0.3l0,0.3l0,0.3l0,0.3l0,0.3l0,0.3l0,0.3l0.1,0.3
							l0.1,0.3l0.1,0.2l0.1,0.2l0.1,0.2l0.1,0.2l0.1,0.2l0.1,0.2l0.1,0.2l0.2,0.2l0.2,0.2L326,35l0.2,0.1l0.2,0.1l0.2,0.1l0.2,0.1
							l0.2,0.1l0.2,0.1l0.2,0.1l0.2,0.1l0.2,0.1l0.3,0.1l0.3,0l0.3,0l0.3,0l0.3,0l0.3,0l0.3,0l0.3,0l0.3,0l0.3,0l0.3,0l0.3-0.1
							l0.3-0.1l0.2-0.1l0.2-0.1l0.2-0.1l0.2-0.1l0.2-0.1l0.2-0.1l0.2-0.1l0.2-0.2l0.2-0.2l0.2-0.2l0.2-0.2l0.2-0.2l0.2-0.2l0.1-0.2
							l0.1-0.2l0.1-0.2l0.1-0.3l0.1-0.3l0.1-0.3l0.1-0.3l0.1-0.3l0.1-0.3l0-0.3l0-0.3l0-0.3l0-0.3L335.1,30.2z M331.8,30l0,0.3
							l0,0.3l-0.1,0.4l-0.1,0.3l-0.1,0.3l-0.1,0.3l-0.1,0.3l-0.1,0.2l-0.1,0.2l-0.1,0.2l-0.2,0.2l-0.2,0.1l-0.2,0.1l-0.2,0.1
							l-0.2,0.1l-0.2,0l-0.2,0l-0.2,0l-0.2,0l-0.2,0l-0.2-0.1l-0.2-0.1l-0.2-0.1l-0.1-0.1l-0.1-0.1l-0.1-0.2l-0.1-0.2l-0.1-0.2
							l-0.1-0.2l0-0.3l0-0.3v-0.3l0-0.4l0-0.4l0-0.2l0-0.2l0.1-0.2l0.1-0.2l0.1-0.2l0.1-0.2l0.1-0.2l0.1-0.2l0.1-0.2l0.2-0.2
							l0.2-0.1l0.2-0.1l0.2-0.1l0.2-0.1l0.3,0l0.3,0h0.2l0.2,0l0.2,0.1L331,28l0.2,0.1l0.1,0.1l0.1,0.1l0.1,0.2l0.1,0.2l0.1,0.2
							l0.1,0.2l0,0.2l0,0.3V30z"/>
					</g>
				</g>
			</g>
		</g>
	</g>
	<g>
		<path class="st9" d="M602.3,58c0-0.1,0.1-0.1,0.1-0.2C602.4,57.9,602.4,57.9,602.3,58z"/>
		<path class="st9" d="M602.9,56.7c0,0.1,0,0.1-0.1,0.2C602.8,56.9,602.9,56.8,602.9,56.7z"/>
		<path class="st9" d="M602.7,57.3c0,0.1-0.1,0.1-0.1,0.2C602.6,57.4,602.7,57.4,602.7,57.3z"/>
		<path class="st9" d="M508.6,3.5v52.7c0,1.7,1.4,3.1,3.1,3.1h88c1,0,1.8-0.4,2.4-1.1L509.5,1.3C509,1.8,508.6,2.6,508.6,3.5z"/>
		<path class="st14" d="M602.9,56.1c0,0.2,0,0.4-0.1,0.6C602.9,56.5,602.9,56.3,602.9,56.1z"/>
		<path class="st14" d="M602.2,58.2c0,0,0.1-0.1,0.1-0.1C602.3,58.1,602.2,58.1,602.2,58.2L602.2,58.2z"/>
		<path class="st14" d="M602.8,56.9c0,0.1-0.1,0.3-0.1,0.4C602.8,57.2,602.8,57.1,602.8,56.9z"/>
		<path class="st14" d="M602.6,57.5c-0.1,0.1-0.1,0.2-0.2,0.3C602.5,57.7,602.6,57.6,602.6,57.5z"/>
		<path class="st14" d="M602.6,57.5c0-0.1,0.1-0.1,0.1-0.2c0-0.1,0.1-0.2,0.1-0.4c0-0.1,0-0.1,0.1-0.2c0-0.2,0.1-0.4,0.1-0.6V3.5
			c0-1.7-1.4-3.1-3.1-3.1h-88c-0.9,0-1.7,0.4-2.2,0.9l92.7,56.9c0,0,0.1-0.1,0.1-0.1c0-0.1,0.1-0.1,0.1-0.2
			C602.5,57.7,602.6,57.6,602.6,57.5z"/>
	</g>
	<polygon class="st15" points="508.6,30.1 556.3,30.1 556.3,59.3 508.6,30.1 	"/>
	<polygon class="st16" points="508.6,44.7 532.1,44.7 532.1,59.2 508.6,44.7 	"/>
	<path class="st6" d="M545,18h4.8c3.6,0,5.6-2,5.6-5.6s-2-5.6-5.6-5.6H545V18L545,18z M547.8,9.1h1.6c2,0,3.2,0.8,3.2,3.2
		c0,2-1.2,2.8-3.2,2.8h-1.6V9.1L547.8,9.1z"/>
	<polygon class="st6" points="557.7,18 566.9,18 566.9,15.2 560.5,15.2 560.5,13.2 566.1,13.2 566.1,10.7 560.5,10.7 560.5,9.1 
		566.5,9.1 566.5,6.7 557.7,6.7 557.7,18 	"/>
	<polygon class="st6" points="569.3,18 577.2,18 577.2,15.2 572,15.2 572,6.7 569.3,6.7 569.3,18 	"/>
	<polygon class="st6" points="586.4,6.7 576.8,6.7 576.8,9.1 580,9.1 580,18 583.2,18 583.2,9.1 586.4,9.1 586.4,6.7 	"/>
	<path class="st6" d="M591.5,9.9L591.5,9.9l1.2,3.6h-2.4L591.5,9.9L591.5,9.9z M586,18h2.8l0.8-2h4l0.8,2h2.8l-4-11.2h-3.2L586,18
		L586,18z"/>
</g>
</svg>
